<svg width="146" height="37" viewBox="0 0 146 37" fill="none" xmlns="http://www.w3.org/2000/svg">
<path d="M77.0664 1.85092C77.0863 1.81727 77.1092 1.81727 77.1368 1.85092L77.0955 1.88458L77.0664 1.85092Z" fill="#6E80A3"/>
<path d="M41.9232 13.6054C42.3653 12.2684 42.7844 11.0049 43.1944 9.75205C43.2448 9.59908 43.3473 9.5639 43.4804 9.53942C45.6939 9.1264 47.9165 8.77457 50.1774 8.88624C51.7729 8.96119 53.3072 9.28702 54.6809 10.1437C56.5441 11.3032 57.3961 13.0501 57.517 15.1917C57.5873 16.4231 57.3869 17.6392 57.211 18.8446C56.8454 21.3013 56.4691 23.7549 56.1157 26.2116C56.1061 26.3147 56.0689 26.4132 56.0081 26.4969C55.9473 26.5806 55.865 26.6464 55.77 26.6874C54.3291 27.4782 52.7657 27.9111 51.1595 28.1742C49.1718 28.5187 47.1443 28.5702 45.1417 28.3272C43.4728 28.1176 41.9171 27.5991 40.7055 26.3723C40.1798 25.8339 39.7716 25.1922 39.507 24.4877C39.2424 23.7833 39.1271 23.0315 39.1683 22.2802C39.2096 21.5288 39.4066 20.7942 39.7468 20.123C40.087 19.4518 40.563 18.8586 41.1446 18.3811C42.3867 17.3593 43.8552 16.8514 45.4017 16.5225C47.7437 16.0269 50.1071 16.0942 52.472 16.2747C52.7672 16.2961 52.8315 16.2059 52.8452 15.9428C52.9508 14.0979 51.8433 12.7732 49.899 12.4168C48.5498 12.169 47.2251 12.3831 45.9004 12.6004C44.5487 12.8228 43.2182 13.159 41.9232 13.6054ZM50.1958 19.1704C49.3539 19.1649 48.513 19.2268 47.681 19.3555C46.7815 19.5085 45.9081 19.7456 45.183 20.3422C44.3631 21.0168 44.1443 21.9224 44.3065 22.9197C44.4594 23.8299 45.0958 24.3286 45.9203 24.6223C46.2982 24.7552 46.6914 24.84 47.0905 24.8747C48.5651 25.0169 49.9969 24.76 51.4196 24.4081C51.5161 24.3954 51.6045 24.3477 51.6683 24.2742C51.732 24.2006 51.7665 24.1062 51.7653 24.0089C51.9595 22.5633 52.1523 21.1162 52.3664 19.6737C52.4032 19.4244 52.3206 19.3769 52.1125 19.3372C51.4788 19.2325 50.838 19.1768 50.1958 19.1704Z" fill="#6E80A3"/>
<path d="M110.213 23.68C109.968 24.4235 109.754 25.0889 109.528 25.7543C109.347 26.3004 109.155 26.8419 108.983 27.3926C108.967 27.4769 108.926 27.5544 108.865 27.6154C108.805 27.6764 108.728 27.7181 108.644 27.7353C106.303 28.3594 103.932 28.6975 101.515 28.3931C98.7617 28.0458 96.4855 26.8634 95.0904 24.3378C94.2323 22.7745 93.96 21.0719 94.0762 19.3173C94.2981 15.9795 95.6886 13.2123 98.2737 11.0692C99.8447 9.76588 101.677 9.09587 103.693 8.89701C105.084 8.76086 106.467 8.78687 107.824 9.1647C110.586 9.92956 112.428 12.0788 112.781 14.924C112.985 16.5593 112.781 18.1655 112.517 19.7732C112.485 19.9736 112.384 19.9797 112.231 19.9797C111.489 19.9797 110.745 19.9797 110.003 19.9797C106.434 19.9797 102.865 19.9797 99.2956 19.9797C99.008 19.9797 98.9239 20.0501 98.9193 20.3453C98.8795 22.75 100.207 24.3378 102.571 24.7432C104.318 25.0491 106.017 24.7845 107.714 24.4143C108.562 24.2246 109.397 23.9793 110.213 23.68ZM103.972 16.8576H107.398C108.445 16.8576 108.445 16.8576 108.48 15.8113C108.552 13.6926 107.256 12.3113 105.15 12.1935C102.63 12.0513 100.255 13.8762 99.6428 16.5838C99.5924 16.8086 99.6428 16.8637 99.8723 16.8622C101.235 16.8515 102.595 16.8576 103.972 16.8576Z" fill="#6E80A3"/>
<path d="M119.006 28.4543C116.76 28.4394 114.53 28.0676 112.401 27.353C112.188 27.2795 112.132 27.2183 112.208 26.9874C112.558 25.9278 112.893 24.8631 113.213 23.7933C113.293 23.5302 113.386 23.5516 113.597 23.6526C115.643 24.6531 117.953 24.9787 120.195 24.5827C120.721 24.5025 121.22 24.298 121.651 23.9861C121.85 23.8479 122.016 23.6667 122.136 23.4559C122.257 23.2451 122.328 23.0101 122.345 22.7681C122.363 22.5261 122.325 22.2832 122.237 22.0575C122.148 21.8318 122.009 21.6288 121.832 21.4636C121.443 21.1037 121.006 20.799 120.534 20.558C119.364 19.9033 118.174 19.2899 117.062 18.5312C114.074 16.486 114.439 12.2288 117.38 10.361C118.683 9.53346 120.111 9.11891 121.627 8.96135C124.154 8.69977 126.597 9.13267 129.004 9.85775C129.225 9.92353 129.281 9.98319 129.197 10.2172C128.835 11.2222 128.484 12.2334 128.155 13.2506C128.068 13.5183 127.964 13.4984 127.758 13.4036C126.252 12.693 124.603 12.3371 122.938 12.3634C122.13 12.3833 121.342 12.5164 120.658 12.9936C120.368 13.179 120.146 13.4546 120.027 13.7782C119.908 14.1018 119.899 14.4555 120.001 14.7849C120.132 15.1543 120.381 15.4707 120.709 15.6859C121.417 16.2183 122.228 16.5777 123.003 17.003C123.952 17.4984 124.858 18.0725 125.711 18.7193C128.232 20.7202 127.976 24.5322 125.558 26.4688C123.998 27.7155 122.171 28.2142 120.228 28.3916C119.74 28.4345 119.256 28.4421 119.006 28.4543Z" fill="#6E80A3"/>
<path d="M135.511 28.4543C133.295 28.4329 131.096 28.0649 128.993 27.3636C128.75 27.2825 128.687 27.2106 128.778 26.9536C129.123 25.9165 129.451 24.8732 129.769 23.8269C129.845 23.573 129.922 23.5363 130.17 23.6556C132.206 24.6468 134.503 24.9732 136.735 24.5887C137.213 24.5136 137.672 24.343 138.083 24.087C139.097 23.4399 139.221 22.2513 138.364 21.4192C138.005 21.0963 137.605 20.8212 137.176 20.6008C135.952 19.9063 134.681 19.2852 133.529 18.4592C130.872 16.5394 131.202 13.0655 132.827 11.3216C133.922 10.1483 135.305 9.51809 136.839 9.18003C138.875 8.72111 140.91 8.83125 142.943 9.20756C143.799 9.36053 144.637 9.59304 145.476 9.81944C145.754 9.89745 145.855 9.98006 145.737 10.2982C145.384 11.2574 145.063 12.2272 144.751 13.2047C144.663 13.4724 144.576 13.5106 144.313 13.3959C142.827 12.6982 141.203 12.3432 139.562 12.3572C138.797 12.371 138.058 12.4842 137.391 12.885C136.76 13.2628 136.44 13.812 136.535 14.5676C136.594 15.048 136.883 15.383 137.247 15.6583C138.012 16.2381 138.892 16.6205 139.724 17.0794C140.672 17.6041 141.609 18.1502 142.436 18.8554C144.755 20.844 144.494 24.5306 142.167 26.4274C140.917 27.4477 139.467 27.977 137.902 28.2508C137.112 28.3793 136.312 28.4473 135.511 28.4543Z" fill="#6E80A3"/>
<path d="M74.9073 23.9507C74.8292 24.4096 74.6319 24.8211 74.4866 25.254C74.2097 26.0785 73.9145 26.8953 73.6407 27.7214C73.6205 27.804 73.5748 27.8781 73.5099 27.933C73.445 27.988 73.3644 28.021 73.2797 28.0273C71.444 28.3333 69.5885 28.5275 67.7238 28.3868C64.9413 28.1772 62.5549 27.163 60.9151 24.792C59.7586 23.1216 59.3502 21.2232 59.4527 19.2239C59.624 15.8891 61.0375 13.1602 63.6425 11.0706C65.1355 9.87435 66.8916 9.28695 68.7625 9.0422C71.0782 8.71397 73.4364 8.85494 75.6966 9.45675C76.128 9.57453 76.544 9.73974 76.9678 9.87741C77.1207 9.92637 77.1605 9.99214 77.1039 10.1589C76.7429 11.2144 76.385 12.2729 76.0469 13.3361C75.9719 13.5701 75.8664 13.5227 75.715 13.463C74.6349 13.0201 73.4911 12.7521 72.3267 12.6691C69.8072 12.5269 67.6167 13.2198 66.0442 15.317C64.5711 17.2827 64.3431 20.5471 65.9203 22.5204C66.9008 23.7442 68.1949 24.3928 69.7308 24.5717C71.3874 24.7645 72.989 24.4448 74.5707 23.9904C74.6717 23.9614 74.7742 23.9415 74.8767 23.917L74.9073 23.9507Z" fill="#6E80A3"/>
<path d="M92.347 23.9296C91.9952 24.9423 91.5913 25.9442 91.3022 26.9783C91.0926 27.7324 90.7393 28.0904 89.9163 28.173C87.6217 28.4024 85.3272 28.6594 83.0326 28.0522C79.4241 27.093 77.0668 24.2141 76.871 20.4725C76.6568 16.4065 78.2141 13.1574 81.4892 10.7543C82.8659 9.74621 84.4721 9.26894 86.1486 9.0502C88.4639 8.72305 90.8212 8.86349 93.0812 9.46322C93.5004 9.57794 93.9027 9.74927 94.3203 9.87012C94.539 9.93437 94.5452 10.0338 94.4733 10.225C94.123 11.2484 93.7757 12.2718 93.4499 13.3028C93.3719 13.5491 93.2786 13.5399 93.0782 13.4634C91.4751 12.8515 89.8352 12.5196 88.1051 12.6985C85.1666 13.0137 82.9301 14.9564 82.3657 17.8154C81.9588 19.879 82.332 21.7666 83.9765 23.2275C85.2874 24.39 86.8829 24.7143 88.5824 24.6149C89.7814 24.536 90.9661 24.3099 92.1099 23.9418C92.1787 23.9296 92.2399 23.873 92.347 23.9296Z" fill="#6E80A3"/>
<path d="M34.0716 19.7196L15.0161 0.664062V3.58886L31.1468 19.7196L31.1529 19.7257L17.1806 33.698L17.1638 33.6811L3.20066 19.7196L3.18842 19.7073L10.043 12.8527H7.06774L0.207031 19.7134L0.21315 19.7196L17.1577 36.6641L17.1638 36.6579L34.0869 19.7349L34.0716 19.7196Z" fill="#6E80A3"/>
<path d="M15.0108 5.60205V8.52684L26.2097 19.7258L17.1875 28.748L8.15769 19.7197L8.14545 19.7074L15 12.8528H12.0248L5.16406 19.7135L5.17018 19.7197L15.693 30.2425L17.1646 31.7141L18.6606 30.2195L29.1437 19.735L15.0108 5.60205Z" fill="#6E80A3"/>
<path d="M24.2051 19.7197L18.6171 14.1255L17.1302 12.6387L15.6678 14.1011L10.0508 19.7135L15.6709 25.3337L17.1425 26.8052L18.6355 25.3107L24.2204 19.735L24.2051 19.7197ZM17.1685 23.8499L13.0383 19.7197L13.0261 19.7074L17.1455 15.5879L21.2757 19.7181L17.1685 23.8499Z" fill="#6E80A3"/>
</svg>
