<svg width="141" height="36" viewBox="0 0 141 36" fill="none" xmlns="http://www.w3.org/2000/svg">
<path d="M124.297 11.9533C124.297 8.24506 124.297 4.53746 124.297 0.830473C124.297 0.617828 124.326 0.54135 124.567 0.543216C129.738 0.550677 134.909 0.550677 140.079 0.543216C140.295 0.543216 140.345 0.599175 140.343 0.81182C140.332 2.11753 140.332 3.42325 140.343 4.72896C140.343 4.94534 140.275 4.97705 140.084 4.97705C136.593 4.97705 133.103 4.97705 129.61 4.97705C129.416 4.97705 129.353 5.01249 129.355 5.22513C129.366 6.55323 129.366 7.88133 129.355 9.20943C129.355 9.40528 129.393 9.47057 129.604 9.4687C132.903 9.4687 136.203 9.4687 139.501 9.4687C139.718 9.4687 139.768 9.5228 139.766 9.73731C139.755 11.0057 139.755 12.2735 139.766 13.5407C139.766 13.7272 139.725 13.7906 139.525 13.7906C136.233 13.7832 132.941 13.7832 129.651 13.7906C129.318 13.7906 129.362 13.7459 129.362 14.0928C129.362 15.6 129.362 17.1071 129.362 18.6124C129.362 18.8232 129.403 18.8848 129.623 18.8848C133.299 18.8754 136.976 18.8848 140.652 18.8736C140.88 18.8736 140.93 18.9314 140.928 19.1534C140.917 20.4889 140.918 21.8245 140.928 23.16C140.928 23.3261 140.889 23.3727 140.719 23.3727C135.321 23.3727 129.921 23.3727 124.521 23.3727C124.306 23.3727 124.308 23.2776 124.308 23.119C124.302 19.3896 124.298 15.6677 124.297 11.9533Z" fill="#6E80A3"/>
<path d="M40.884 23.3167C40.5381 22.4717 40.1959 21.6267 39.8462 20.7855C39.5669 20.1084 39.2746 19.4387 38.9953 18.7616C38.7159 18.0845 38.4403 17.3888 38.1647 16.7098C37.7947 15.807 37.4043 14.9116 37.0325 14.007C36.6625 13.1321 36.3295 12.248 35.9688 11.3732C35.6081 10.4983 35.2288 9.61417 34.8588 8.73188C34.5555 7.99695 34.2613 7.25829 33.9616 6.51963C33.5793 5.57579 33.1952 4.63194 32.8091 3.6881C32.4922 2.91213 32.174 2.14114 31.8546 1.37512C31.7448 1.109 31.6344 0.842262 31.5234 0.574902C31.5789 0.530134 31.6381 0.550653 31.6936 0.550653C33.4474 0.550653 35.2085 0.550653 36.953 0.550653C37.0199 0.541834 37.0876 0.559134 37.1423 0.59901C37.1969 0.638886 37.2344 0.698325 37.2471 0.765163C38.0426 2.91959 38.8491 5.06842 39.652 7.22099C40.3685 9.13852 41.0844 11.0567 41.7997 12.9755C42.2104 14.0778 42.6119 15.1821 43.0225 16.2845C43.041 16.333 43.0447 16.4058 43.1317 16.4356C43.255 16.1222 43.3746 15.8113 43.4906 15.5029C43.707 14.9322 43.9198 14.3595 44.1343 13.7887C44.3193 13.2907 44.5136 12.7945 44.7004 12.2965C44.8873 11.7984 45.0704 11.3172 45.2554 10.8285C45.4404 10.3398 45.6254 9.82868 45.8104 9.33624L46.4282 7.70597C46.6225 7.19487 46.8167 6.68378 47.0073 6.17082C47.1978 5.65786 47.3773 5.1934 47.5622 4.70469C47.7472 4.21598 47.9322 3.73659 48.1172 3.25162L48.761 1.5374L49.0792 0.684955C49.1069 0.612208 49.1328 0.565575 49.2309 0.56744C51.0056 0.56744 52.7803 0.56744 54.5549 0.56744C54.5679 0.56744 54.579 0.578632 54.6104 0.591689C54.3774 1.15128 54.1424 1.71087 53.9112 2.27046C53.2945 3.74033 52.6816 5.21019 52.0724 6.68005C51.5766 7.86825 51.0752 9.05458 50.5795 10.2428C50.0122 11.6007 49.4461 12.958 48.8812 14.3147C48.3805 15.5135 47.8786 16.7123 47.3754 17.9111C46.8821 19.0899 46.3888 20.2713 45.8955 21.4551C45.6328 22.0893 45.3664 22.7217 45.1019 23.3559C45.0455 23.3757 44.9852 23.3815 44.9261 23.3727H41.069C41.008 23.3447 40.934 23.3783 40.884 23.3167Z" fill="#6E80A3"/>
<path d="M110.09 16.499L112.425 10.2968C113.625 7.10593 114.825 3.91563 116.024 0.725959C116.061 0.627098 116.087 0.539429 116.23 0.539429C117.991 0.539429 119.745 0.539429 121.511 0.539429C121.532 0.543425 121.553 0.549678 121.572 0.558082L121.017 1.90856C118.07 8.96812 115.126 16.0215 112.186 23.0686C112.16 23.1612 112.102 23.2413 112.022 23.2935C111.942 23.3457 111.845 23.3666 111.751 23.3521C110.53 23.3391 109.309 23.3521 108.09 23.3521C108.027 23.361 107.962 23.3459 107.909 23.3098C107.856 23.2736 107.817 23.219 107.802 23.1563C104.889 16.0681 101.972 8.98367 99.0533 1.90297C98.8683 1.45902 98.6722 1.02254 98.4688 0.550621H98.6926C100.439 0.550621 102.183 0.550621 103.93 0.550621C103.996 0.541746 104.064 0.558789 104.118 0.598286C104.173 0.637783 104.211 0.696771 104.224 0.763265C106.14 5.91773 108.06 11.0728 109.983 16.2285C110.014 16.3087 110.047 16.3889 110.09 16.499Z" fill="#6E80A3"/>
<path d="M84.8711 23.3167C84.8711 23.2291 84.8711 23.1302 84.8711 23.05C84.8711 15.6422 84.8711 8.23885 84.8711 0.8398C84.8711 0.615963 84.9099 0.541351 85.1523 0.543216C86.7414 0.543216 88.3304 0.543216 89.9214 0.543216C89.9769 0.62529 89.9473 0.71669 89.9473 0.804359C89.9473 6.72733 89.9473 12.649 89.9473 18.5695C89.9316 18.6583 89.9392 18.7496 89.9695 18.8344C90.0231 18.8597 90.0835 18.8669 90.1415 18.8549C93.2531 18.8549 96.3653 18.8549 99.4781 18.8549H99.5447C99.6039 18.9202 99.5743 18.9986 99.5743 19.0694C99.5743 20.4199 99.5743 21.7704 99.5743 23.119C99.5743 23.3055 99.5262 23.354 99.3412 23.354C94.5856 23.354 89.8295 23.354 85.0727 23.354C85.008 23.3447 84.9303 23.3708 84.8711 23.3167Z" fill="#6E80A3"/>
<path d="M7.64035 14.7195C8.77594 14.8434 9.88764 15.1331 10.9406 15.5794C11.1188 15.6464 11.2645 15.78 11.3476 15.9525C11.7877 16.8678 12.3655 17.7091 13.0606 18.4464C14.2761 19.7867 15.8201 20.7806 17.5374 21.3283C18.0115 21.4938 18.5056 21.5942 19.0063 21.6267C19.0766 21.6733 19.1617 21.6267 19.2338 21.6603L19.4502 21.6715C19.5964 21.7237 19.7518 21.6715 19.8998 21.7051H20.3456C20.4917 21.6678 20.6471 21.7256 20.7933 21.6733C21.5506 21.6443 22.2999 21.5068 23.0187 21.2648C24.4691 20.8133 25.8266 20.1011 27.0257 19.1626C27.0723 19.1296 27.1212 19.0996 27.1718 19.0731C27.8452 19.0451 28.5204 19.0731 29.1956 19.0619C29.2234 19.0619 29.2345 19.0787 29.253 19.0918V23.4603C29.1882 23.5144 29.1105 23.4883 29.0402 23.4883H1.02133C0.951038 23.4883 0.873341 23.5144 0.808594 23.4603C0.808594 22.8429 0.808594 22.2236 0.808594 21.595C0.808594 21.4458 0.852992 21.3861 0.993586 21.3488C2.19104 21.0514 3.3134 20.5043 4.28829 19.7428C5.08827 19.1325 5.74776 18.3549 6.22146 17.4634C6.55344 16.8797 6.83149 16.2666 7.05208 15.6316C7.14161 15.3712 7.20846 15.1035 7.25187 14.8314C7.25199 14.8112 7.25634 14.7913 7.26463 14.7729C7.27292 14.7545 7.28497 14.738 7.29998 14.7247C7.315 14.7113 7.33264 14.7012 7.35177 14.6952C7.37089 14.6892 7.39106 14.6873 7.41096 14.6896C7.48311 14.7363 7.56635 14.6915 7.64035 14.7195Z" fill="#6E80A3"/>
<path d="M27.1222 5.02366C26.296 4.36796 25.3926 3.81787 24.4324 3.38592C23.8615 3.12535 23.273 2.90593 22.6713 2.72934C22.1413 2.57624 21.5981 2.47444 21.0489 2.42529C20.9749 2.38612 20.888 2.42529 20.8121 2.39172H20.5494C20.2081 2.35627 19.8641 2.35627 19.5227 2.39172H19.2582C19.1842 2.42716 19.0991 2.39172 19.027 2.42529C18.2796 2.4841 17.5461 2.66098 16.8533 2.94944C15.6686 3.42841 14.5822 4.12475 13.6492 5.00314C13.0068 5.6022 12.4164 6.25557 11.8844 6.95612C11.8556 7.00162 11.8119 7.0356 11.761 7.05227C11.71 7.06894 11.6549 7.06726 11.6051 7.04752C11.4126 7.01166 11.2179 6.98984 11.0224 6.98223C10.9317 6.9412 10.8374 6.98223 10.743 6.95239L10.3027 6.9412C10.0196 6.90483 9.73304 6.90483 9.44992 6.9412L9.00779 6.95425C8.91899 6.98223 8.82279 6.93933 8.734 6.9841L8.52126 6.99529C8.44911 7.03073 8.36586 6.98223 8.29742 7.03073C7.725 7.07894 7.15794 7.17819 6.60289 7.32731C6.51594 7.34783 6.50669 7.33851 6.4771 7.25084C6.27507 6.67665 5.97589 6.1421 5.59283 5.67092C5.39653 5.39543 5.17612 5.13823 4.93426 4.90242C4.3833 4.3831 3.7684 3.93737 3.10469 3.57618C2.61758 3.32478 2.11454 3.10607 1.59886 2.92146C1.39019 2.8448 1.17544 2.78615 0.956934 2.74612C0.82559 2.72561 0.81079 2.67524 0.81264 2.55959C0.81264 1.91979 0.81264 1.27813 0.81264 0.638328C0.877387 0.578638 0.955084 0.606618 1.02538 0.606618H29.0369C29.1072 0.606618 29.1849 0.578638 29.2496 0.638328V5.0106C29.2385 5.01993 29.2256 5.03485 29.2145 5.03485C28.517 5.03672 27.8196 5.05724 27.1222 5.02366Z" fill="#6E80A3"/>
<path d="M24.6852 11.3302C25.489 11.2576 26.2783 11.0692 27.0291 10.7706C27.2485 10.6851 27.4629 10.5866 27.671 10.4759C27.769 10.4256 27.8005 10.4218 27.8412 10.5375C27.9355 10.8005 28.0428 11.0579 28.1594 11.3134C28.2038 11.4142 28.176 11.4552 28.0909 11.5C27.2964 11.9616 26.4662 12.3578 25.6083 12.6844C24.6161 13.0448 23.5913 13.3065 22.5486 13.466C22.4754 13.4741 22.402 13.4784 22.3284 13.4791C22.2544 13.5108 22.1712 13.4679 22.099 13.5126L21.84 13.5238C21.6939 13.5649 21.5404 13.5033 21.3942 13.5593H20.4249C20.2787 13.5033 20.1252 13.5593 19.979 13.5238L19.72 13.5126C19.6479 13.4679 19.5646 13.5126 19.4906 13.4791C18.4601 13.3794 17.4462 13.1481 16.4734 12.7908C15.6243 12.4979 14.8455 12.0446 14.05 11.6324C13.1793 11.1722 12.249 10.8369 11.2863 10.6363C10.7701 10.5319 10.254 10.4498 9.73417 10.3789C9.66202 10.336 9.57878 10.3789 9.50478 10.3453H9.24024C9.11075 10.2931 8.972 10.3453 8.84066 10.3136C8.42539 10.2894 8.00908 10.2894 7.59381 10.3136C7.44767 10.3547 7.29227 10.2931 7.14798 10.3491H6.88344C6.79649 10.3864 6.69845 10.3323 6.6152 10.3845L6.43946 10.3938C6.36916 10.4293 6.28407 10.3808 6.21562 10.4293C5.46087 10.5057 4.71429 10.6493 3.98462 10.8583C3.70898 10.9366 3.42964 11.0225 3.16695 11.1139C3.08371 11.1418 3.04301 11.1418 2.99121 11.0579C2.87466 10.8714 2.73777 10.6998 2.62123 10.517C2.56203 10.4293 2.52318 10.3435 2.65452 10.2614C3.83303 9.50855 5.11097 8.92707 6.45056 8.53413C7.21974 8.32254 8.00492 8.1753 8.79811 8.09392C8.89986 8.05662 9.0127 8.11071 9.1126 8.06035L9.68792 8.04543C9.83354 8.0277 9.98074 8.0277 10.1264 8.04543H10.6573C10.7572 8.09765 10.8682 8.04543 10.9699 8.079L11.1882 8.09206C11.2585 8.13869 11.3417 8.09206 11.4139 8.12563C12.2875 8.25653 13.1467 8.4714 13.9797 8.7673C14.4425 8.95229 14.8957 9.16085 15.3376 9.39218C16.6682 10.0554 18.0638 10.5768 19.5017 10.9478C20.2202 11.1513 20.9582 11.2764 21.7032 11.3209C21.7734 11.3675 21.8548 11.3209 21.927 11.3545L22.1915 11.3657C22.3062 11.4179 22.432 11.3657 22.5504 11.3992C22.9953 11.4254 23.4412 11.4254 23.8861 11.3992C23.9897 11.3657 24.1025 11.4123 24.2061 11.3675L24.4614 11.3545C24.5335 11.3302 24.6168 11.3787 24.6852 11.3302Z" fill="#6E80A3"/>
<path d="M17.4063 16.7098C16.6672 16.6471 15.9371 16.5032 15.229 16.2808C14.3589 16.0296 13.5193 15.6811 12.726 15.2418C11.5812 14.5619 10.3301 14.0832 9.02619 13.826C8.56741 13.7421 8.10123 13.66 7.6443 13.6078C7.5703 13.5686 7.48705 13.6078 7.41306 13.5779L7.11152 13.563C6.96353 13.5145 6.80813 13.563 6.65829 13.5313H5.63159C5.48251 13.532 5.33361 13.5419 5.18575 13.5611L4.87867 13.5742C4.80282 13.6022 4.71957 13.5649 4.64558 13.604L4.44209 13.6171C4.37179 13.6525 4.28854 13.6022 4.2201 13.6525C3.46754 13.7243 2.72318 13.8661 1.99649 14.076C1.7079 14.1524 1.42117 14.242 1.13628 14.3352C1.04563 14.3651 1.00308 14.3707 0.951287 14.2737C0.840291 14.0872 0.701547 13.9137 0.581303 13.7346C0.516555 13.6432 0.488807 13.591 0.622001 13.5052C2.04061 12.5819 3.61303 11.9247 5.26345 11.5653C5.78513 11.4534 6.31421 11.3787 6.84328 11.3265C6.94503 11.2948 7.05417 11.347 7.15407 11.2948H8.56001C8.6636 11.3414 8.77645 11.2948 8.88004 11.3265L9.10204 11.3377C9.17048 11.3862 9.25373 11.3377 9.32403 11.3713C10.3018 11.5029 11.2613 11.747 12.184 12.0987C12.7834 12.3394 13.3421 12.6583 13.9285 12.9288C15.4183 13.6207 16.9881 14.122 18.6014 14.4211C18.9356 14.5011 19.2772 14.5461 19.6207 14.5554C19.6891 14.602 19.7705 14.5554 19.8427 14.5871L20.1035 14.602C20.2053 14.6486 20.3163 14.602 20.4198 14.6318C20.9237 14.6654 21.4292 14.6654 21.9331 14.6318C22.0348 14.5983 22.1458 14.6505 22.2476 14.6001L22.4659 14.5889C22.5362 14.5554 22.6194 14.6039 22.6878 14.5554C23.4524 14.4857 24.2034 14.308 24.9189 14.0275C25.1713 13.9448 25.4139 13.834 25.6422 13.6973C25.7254 13.6432 25.7735 13.6656 25.8087 13.7533C25.9123 14.0126 26.0196 14.27 26.1269 14.5274C26.1694 14.63 26.1269 14.6803 26.0418 14.74C25.5991 15.0117 25.14 15.2553 24.6673 15.4694C24.094 15.7372 23.5038 15.9665 22.9006 16.1558C22.182 16.3846 21.4456 16.5518 20.6992 16.6557C20.5771 16.6725 20.4568 16.693 20.3292 16.7116C20.2571 16.7415 20.1738 16.6967 20.1035 16.7434L19.8408 16.7564C19.7224 16.79 19.5966 16.7378 19.4708 16.7863H18.2591C18.1407 16.7396 18.015 16.7863 17.8892 16.7564L17.6283 16.7415C17.5617 16.6986 17.4785 16.7415 17.4063 16.7098Z" fill="#6E80A3"/>
<path d="M51.4445 35.8571C51.0227 35.8571 50.6009 35.8571 50.181 35.8571C50.1242 35.8624 50.0672 35.8501 50.0176 35.8217C49.968 35.7934 49.9282 35.7504 49.9035 35.6986C49.2646 34.6453 48.6227 33.5927 47.9777 32.5406C47.9444 32.5406 47.9204 32.5406 47.9204 32.5817C47.9062 32.9871 47.9123 33.393 47.9389 33.7978C47.9389 34.4171 47.9389 35.0364 47.9389 35.6631C47.9389 35.8142 47.9093 35.8702 47.7539 35.8627C47.4579 35.8497 47.1619 35.8534 46.8659 35.8627C46.7401 35.8627 46.7031 35.8254 46.7031 35.6986C46.7031 34.0497 46.7031 32.4013 46.7031 30.7537C46.7031 30.6082 46.7568 30.5802 46.8881 30.5821C47.2581 30.5821 47.6133 30.5914 47.9759 30.5821C48.0328 30.5756 48.0903 30.5875 48.1401 30.616C48.1899 30.6445 48.2296 30.6881 48.2534 30.7406C48.8897 31.802 49.5335 32.8577 50.1754 33.9116C50.1754 33.9116 50.2013 33.9116 50.242 33.9359V32.2702C50.2217 31.7236 50.242 31.1771 50.2328 30.6306C50.2328 30.6063 50.2494 30.5914 50.2605 30.5727H51.4408C51.4944 30.6194 51.4722 30.6846 51.4722 30.7406C51.4722 32.3933 51.4722 34.0465 51.4722 35.7004C51.4821 35.7543 51.4723 35.81 51.4445 35.8571Z" fill="#6E80A3"/>
<path d="M55.9698 33.4491C55.9698 34.2232 55.9698 34.9301 55.9698 35.6371C55.9698 35.8012 55.942 35.8739 55.757 35.8628C55.4841 35.8469 55.2105 35.8469 54.9375 35.8628C54.7729 35.8721 54.7248 35.8255 54.7266 35.6557C54.7266 34.6559 54.7266 33.6561 54.7266 32.6582C54.7266 32.0314 54.7266 31.4047 54.7266 30.7798C54.7266 30.6175 54.7766 30.5765 54.9283 30.5821C55.2094 30.5933 55.4832 30.5933 55.77 30.5821C55.9235 30.5821 55.9716 30.6175 55.9698 30.7779C55.9605 31.4028 55.9698 32.0258 55.9698 32.6899C56.1399 32.5391 56.2954 32.3724 56.4341 32.1918C56.891 31.6882 57.3239 31.1622 57.7623 30.6399C57.816 30.5765 57.877 30.5858 57.9473 30.5858C58.4265 30.5858 58.9074 30.5858 59.4273 30.5858C59.2922 30.7406 59.1794 30.8805 59.0573 31.0111C58.4875 31.6248 57.9196 32.2403 57.3387 32.8428C57.2092 32.9771 57.2203 33.0536 57.3387 33.1842C58.0787 34.0609 58.8186 34.945 59.5845 35.859C59.0295 35.859 58.5005 35.8702 57.9788 35.859C57.7697 35.859 57.7198 35.6184 57.6088 35.486C57.2388 35.0607 56.9021 34.613 56.5525 34.1803L55.9698 33.4491Z" fill="#6E80A3"/>
<path d="M91.5332 30.5784H92.7541C92.817 30.6493 92.7856 30.7351 92.7856 30.8134C92.7856 31.789 92.7856 32.7645 92.7856 33.7401C92.7719 33.8207 92.7789 33.9035 92.8059 33.9807C92.8133 34.1927 92.8957 34.395 93.0382 34.551C93.1808 34.707 93.374 34.8064 93.5829 34.8313C93.8306 34.8782 94.0867 34.824 94.2949 34.6806C94.503 34.5372 94.6462 34.3163 94.6928 34.0665C94.7207 33.9297 94.7337 33.7902 94.7317 33.6505C94.7317 32.6974 94.7317 31.7423 94.7317 30.7891C94.7317 30.6194 94.7798 30.5728 94.9444 30.5802C95.2386 30.5933 95.5345 30.5802 95.8305 30.5802C95.9582 30.5802 96.0155 30.6064 96.0155 30.7518C96.0155 31.8244 96.0396 32.8988 96.0155 33.9695C95.9785 35.1428 95.1646 35.887 94.0361 35.984C93.4349 36.0363 92.8503 35.9728 92.3397 35.611C92.1045 35.4458 91.9096 35.2288 91.7698 34.9764C91.6301 34.724 91.5491 34.4428 91.5332 34.1542L91.5221 34.0217C91.4906 33.6058 91.5221 33.1898 91.5091 32.7738C91.5091 32.1135 91.5091 31.4513 91.5091 30.791C91.5036 30.7201 91.4721 30.6418 91.5332 30.5784Z" fill="#6E80A3"/>
<path d="M100.351 32.1489C100.378 32.3746 100.565 32.4287 100.73 32.5033C101.135 32.6898 101.572 32.7812 101.973 32.9827C102.957 33.477 102.898 34.7323 102.343 35.3516C101.912 35.8291 101.357 35.9858 100.743 35.9914C100.174 36.0095 99.6137 35.8548 99.1335 35.5475C99.0225 35.4747 98.9485 35.3609 98.8245 35.3106C98.7542 35.2807 98.7431 35.2192 98.8116 35.152C99.0502 34.917 99.287 34.682 99.5164 34.4395C99.6089 34.3388 99.6496 34.4171 99.7014 34.4731C99.8503 34.6319 100.033 34.7546 100.236 34.8318C100.439 34.909 100.656 34.9388 100.872 34.9189C101.012 34.9146 101.145 34.8592 101.247 34.7631C101.35 34.667 101.413 34.5367 101.427 34.3966C101.451 34.1597 101.302 34.0235 101.124 33.9247C100.8 33.7582 100.459 33.6274 100.107 33.5348C99.8865 33.476 99.6829 33.3668 99.5116 33.2157C99.3403 33.0646 99.2058 32.8757 99.1187 32.6637C99.0905 32.5813 99.0701 32.4963 99.0576 32.41C99.0382 32.2178 99.0382 32.024 99.0576 31.8318C99.1335 31.1883 99.6126 30.7126 100.316 30.541C100.681 30.4424 101.062 30.4209 101.436 30.4777C101.809 30.5345 102.167 30.6685 102.487 30.8712C102.506 30.8823 102.526 30.8917 102.545 30.9047C102.809 31.0782 102.806 31.0763 102.585 31.3058C102.412 31.4923 102.239 31.6695 102.077 31.8654C101.986 31.9717 101.934 31.9605 101.834 31.8654C101.69 31.7151 101.509 31.6072 101.309 31.5533C101.108 31.4994 100.898 31.5015 100.698 31.5595C100.523 31.6098 100.375 31.6994 100.354 31.9101C100.322 31.9862 100.321 32.0719 100.351 32.1489Z" fill="#6E80A3"/>
<path d="M77.5072 30.5784C78.828 30.5784 80.1488 30.5784 81.4697 30.5784C81.6695 30.5784 81.725 30.6343 81.7083 30.8265C81.6908 31.0418 81.6908 31.2583 81.7083 31.4737C81.7231 31.6602 81.6473 31.692 81.4808 31.692C81.0689 31.673 80.6562 31.6792 80.245 31.7106C80.2162 31.7874 80.2092 31.8707 80.2247 31.9512C80.2247 33.1711 80.2247 34.3923 80.2247 35.6147C80.235 35.6958 80.2293 35.7782 80.208 35.8572H78.963C78.9328 35.7815 78.9251 35.6985 78.9409 35.6184C78.9409 34.3935 78.9409 33.168 78.9409 31.9419C78.9554 31.8619 78.9484 31.7795 78.9205 31.7032L77.5109 31.692C77.456 31.3229 77.4547 30.9478 77.5072 30.5784Z" fill="#6E80A3"/>
<path d="M40.8867 23.3167C40.9382 23.3467 40.9977 23.3598 41.0569 23.354H45.0139C45.0433 23.3518 45.0724 23.3468 45.1008 23.3391C45.0324 23.4062 44.9454 23.3783 44.8677 23.3783C43.6209 23.3783 42.3741 23.3783 41.1272 23.3783C41.0458 23.3671 40.9459 23.4118 40.8867 23.3167Z" fill="#6E80A3"/>
<path d="M109.404 30.8264C109.419 30.6399 109.365 30.5765 109.163 30.5783C107.842 30.5783 106.522 30.5783 105.201 30.5783C105.127 30.6194 105.147 30.694 105.147 30.7649C105.147 31.0167 105.147 31.2685 105.147 31.5222C105.147 31.5856 105.127 31.6583 105.201 31.7087C105.608 31.7087 106.015 31.7087 106.42 31.6994C106.616 31.6994 106.662 31.7479 106.66 31.9437C106.66 33.1804 106.66 34.4153 106.66 35.652C106.66 35.8385 106.714 35.887 106.893 35.8795C107.232 35.8646 107.572 35.8795 107.913 35.8795C107.981 35.8031 107.95 35.7098 107.95 35.624C107.95 34.3183 107.95 33.0293 107.95 31.733C108.361 31.7016 108.774 31.6953 109.185 31.7143C109.35 31.7143 109.428 31.6845 109.411 31.4961C109.391 31.2734 109.388 31.0495 109.404 30.8264Z" fill="#6E80A3"/>
<path d="M70.2122 34.695C70.1401 34.6204 70.0402 34.5701 70.1345 34.4469L71.1723 33.0722C71.1501 33.0088 71.0983 33.0125 71.0465 33.0125C70.6396 33.0125 70.2307 32.9995 69.8238 33.0219C69.722 33.1823 69.6184 33.3408 69.5185 33.5031C69.3243 33.8202 69.3335 33.8202 69.0653 33.5535C68.9469 33.4322 68.7378 33.3072 68.7378 33.1804C68.7378 33.0219 68.9968 32.9939 69.1319 32.8801C69.3215 32.7505 69.4751 32.5741 69.5781 32.3678C69.681 32.1615 69.7299 31.932 69.7201 31.7012C69.7142 31.4583 69.6354 31.2229 69.4941 31.026C69.3527 30.8292 69.1555 30.6803 68.9284 30.5988C68.428 30.3947 67.8709 30.3814 67.3615 30.5615C66.6215 30.7965 66.3496 31.4942 66.5494 32.2142C66.6483 32.4744 66.791 32.7154 66.9712 32.9267C66.4421 33.1785 66.0333 33.5292 65.9482 34.1541C65.9287 34.3158 65.9287 34.4792 65.9482 34.6409C65.9749 34.8657 66.0564 35.0804 66.1856 35.2656C66.3147 35.4508 66.4874 35.6009 66.6881 35.7023C66.9853 35.8615 67.3155 35.9477 67.6519 35.9541C67.768 35.969 67.8855 35.969 68.0016 35.9541C68.4153 35.9434 68.8131 35.7915 69.13 35.5232C69.315 35.3628 69.389 35.415 69.5204 35.5568C69.6203 35.6669 69.7053 35.8403 69.8644 35.8459C70.3547 35.859 70.8431 35.8459 71.3074 35.8459C70.9411 35.471 70.5804 35.0811 70.2122 34.695ZM68.5214 34.7062C68.4411 34.7937 68.3435 34.8632 68.2348 34.9102C68.1261 34.9571 68.0088 34.9804 67.8906 34.9786C67.7302 34.9949 67.5694 34.9519 67.4382 34.8575C67.307 34.7631 67.2143 34.6238 67.1773 34.4656C67.1404 34.3074 67.1619 34.1411 67.2376 33.9976C67.3134 33.8541 67.4383 33.7434 67.589 33.6859C67.6197 33.6653 67.6569 33.6571 67.6933 33.663C67.7296 33.6689 67.7624 33.6884 67.7851 33.7176C68.033 33.9806 68.2809 34.2474 68.5381 34.5048C68.6268 34.5962 68.5788 34.6521 68.5214 34.71V34.7062ZM68.0774 32.4679C68.0573 32.4725 68.0365 32.4725 68.0164 32.4679C67.8055 32.4007 67.5927 31.9269 67.6649 31.6844C67.7033 31.5589 67.7895 31.4538 67.9046 31.3922C68.0198 31.3307 68.1544 31.3177 68.2791 31.3561C68.3796 31.3813 68.4688 31.4399 68.5322 31.5225C68.5957 31.6051 68.6297 31.7068 68.6287 31.8113C68.6078 31.9627 68.5451 32.1052 68.4476 32.2223C68.35 32.3395 68.2218 32.4265 68.0774 32.4735V32.4679Z" fill="#6E80A3"/>
<path d="M36.085 34.2027C36.074 33.9869 36.0029 33.7787 35.8799 33.6019C35.7569 33.425 35.5869 33.2867 35.3895 33.2029C35.3007 33.16 35.1878 33.1544 35.1194 33.0574C35.3118 32.9813 35.4821 32.8575 35.6143 32.6974C35.7466 32.5373 35.8366 32.3461 35.876 32.1415C35.8963 32.0092 35.8963 31.8746 35.876 31.7423C35.8465 31.5236 35.7584 31.3172 35.6212 31.1453C35.4839 30.9734 35.3028 30.8425 35.0972 30.7668C34.9273 30.7048 34.7537 30.6537 34.5774 30.6138C34.5071 30.5765 34.422 30.625 34.3517 30.5784C33.6431 30.5784 32.9328 30.5784 32.2243 30.5784C32.067 30.5784 32.0078 30.6063 32.0078 30.7836C32.0152 32.4089 32.0152 34.0335 32.0078 35.6576C32.0078 35.8106 32.0411 35.8628 32.1928 35.8591C32.8366 35.8497 33.4877 35.8591 34.1223 35.8591C34.5992 35.882 35.0718 35.7591 35.4783 35.5065C35.6934 35.3714 35.8651 35.1764 35.9728 34.945C36.0805 34.7137 36.1194 34.4559 36.085 34.2027ZM33.7893 31.6043C33.9593 31.599 34.1292 31.6172 34.2943 31.6584C34.395 31.6751 34.4868 31.7264 34.5542 31.8036C34.6216 31.8807 34.6605 31.979 34.6643 32.0818C34.6768 32.1867 34.6552 32.2928 34.6028 32.3842C34.5505 32.4757 34.4701 32.5476 34.3739 32.5892C34.0353 32.7403 33.6764 32.6638 33.325 32.6768C33.2491 32.6768 33.2584 32.6134 33.2584 32.5631C33.2584 32.4213 33.2584 32.2814 33.2584 32.1396C33.251 31.6062 33.251 31.608 33.7893 31.6043ZM34.5293 34.7026C34.1426 34.8891 33.7319 34.8107 33.3287 34.8182C33.2547 34.8182 33.2565 34.7585 33.2565 34.7063C33.2565 34.3873 33.2565 34.0665 33.2565 33.7475C33.2565 33.6431 33.3046 33.6226 33.3916 33.6263C33.5099 33.6263 33.6283 33.6263 33.8004 33.6263C34.0256 33.6129 34.2514 33.6381 34.4682 33.7009C34.5708 33.724 34.6629 33.781 34.7299 33.8627C34.7969 33.9444 34.835 34.0463 34.8382 34.1523C34.8504 34.2648 34.8264 34.3783 34.7698 34.476C34.7132 34.5738 34.6269 34.6506 34.5237 34.6951L34.5293 34.7026Z" fill="#6E80A3"/>
<path d="M88.6147 35.6277C88.2354 34.9972 87.8599 34.363 87.4714 33.74C87.3974 33.6188 87.4252 33.5777 87.5306 33.5348C87.7881 33.4457 88.0142 33.2825 88.1808 33.0654C88.3475 32.8483 88.4475 32.5868 88.4685 32.3131C88.4888 32.2109 88.4888 32.1056 88.4685 32.0034C88.4525 31.7566 88.3722 31.5183 88.2358 31.3127C88.0994 31.107 87.9117 30.9412 87.6915 30.832C87.4524 30.7323 87.2047 30.6549 86.9516 30.6007C86.8794 30.5727 86.798 30.6175 86.7296 30.569H84.6669C84.5541 30.569 84.4708 30.569 84.4727 30.7257C84.4727 32.3808 84.4727 34.036 84.4727 35.6911C84.4727 35.831 84.53 35.8478 84.6447 35.8459C84.9981 35.8459 85.3532 35.8459 85.7084 35.8459C85.7378 35.7779 85.7455 35.7023 85.7306 35.6296C85.7306 35.1259 85.7306 34.6204 85.7306 34.1168C85.7306 33.7158 85.7306 33.7158 86.1395 33.7885C86.4429 34.363 86.737 34.9431 87.0644 35.5083C87.131 35.624 87.1495 35.831 87.3142 35.8385C87.7822 35.859 88.2502 35.8385 88.7516 35.8385L88.6147 35.6277ZM86.8831 32.7178C86.5316 32.8745 86.1561 32.8148 85.7898 32.8223C85.701 32.8223 85.7084 32.757 85.7084 32.6973C85.7084 32.5332 85.7084 32.369 85.7084 32.1676C85.7269 32.0127 85.6252 31.7609 85.7454 31.6453C85.8657 31.5296 86.1247 31.608 86.3226 31.608C86.4995 31.602 86.676 31.6272 86.8443 31.6826C86.9485 31.7117 87.0408 31.7738 87.1074 31.8598C87.174 31.9458 87.2115 32.051 87.2143 32.1601C87.2282 32.2779 87.2033 32.397 87.1434 32.4991C87.0836 32.6013 86.9921 32.6807 86.8831 32.7253V32.7178Z" fill="#6E80A3"/>
<path d="M43.9708 35.6072C43.8006 35.1931 43.6267 34.7809 43.4565 34.3668C42.9484 33.1431 42.4477 31.9195 41.9544 30.6958C41.9445 30.6604 41.9227 30.6296 41.8926 30.6088C41.8624 30.588 41.826 30.5785 41.7897 30.5821C41.4586 30.5821 41.1256 30.5821 40.7926 30.5821C40.752 30.5766 40.7108 30.5863 40.6767 30.6093C40.6426 30.6323 40.6181 30.6671 40.6076 30.707C40.319 31.3972 40.0193 32.0818 39.7326 32.7738C39.3293 33.7475 38.939 34.7249 38.5283 35.6949C38.4654 35.8441 38.4932 35.859 38.6245 35.859C38.9945 35.859 39.3497 35.859 39.7104 35.859C39.7565 35.8647 39.803 35.8526 39.8407 35.8253C39.8783 35.798 39.9045 35.7575 39.9139 35.7116C39.9953 35.4524 40.0989 35.2024 40.1932 34.945C40.2247 34.8555 40.2617 34.8182 40.3597 34.8182C40.9443 34.8182 41.5289 34.8182 42.1116 34.8182C42.1531 34.8166 42.194 34.8292 42.2275 34.8539C42.2611 34.8786 42.2854 34.914 42.2966 34.9543C42.3983 35.2173 42.5075 35.4785 42.5963 35.7471C42.624 35.8366 42.6536 35.8609 42.7387 35.859C43.1679 35.859 43.5971 35.859 44.0559 35.859C44.0263 35.7583 44.0022 35.6818 43.9708 35.6072ZM40.6224 33.7773C40.8315 33.2065 41.0368 32.6413 41.2662 32.0127L41.8989 33.7773H40.6224Z" fill="#6E80A3"/>
<path d="M66.8622 0.00968637C66.7409 0.0374971 66.6163 0.0475486 66.4922 0.0395313C66.6106 -0.0313504 66.7456 0.0171476 66.8622 0.00968637Z" fill="#6E80A3"/>
<path d="M68.9292 0.0376869C68.8083 0.0459847 68.687 0.0333672 68.5703 0.000380773C68.6887 0.0171685 68.8145 -0.0294641 68.9292 0.0376869Z" fill="#6E80A3"/>
<path d="M69.4617 0.0842946C69.3832 0.0925737 69.3039 0.0816978 69.2305 0.0525844C69.3082 0.056315 69.3914 0.0246048 69.4617 0.0842946Z" fill="#6E80A3"/>
<path d="M66.2296 0.0507582C66.1586 0.0816406 66.0806 0.0925968 66.0039 0.0824684C66.0724 0.0246439 66.1538 0.0563541 66.2296 0.0507582Z" fill="#6E80A3"/>
<path d="M80.4326 11.1064L80.4196 10.7632C80.3826 10.6868 80.4196 10.6028 80.3919 10.5245C80.3641 10.4461 80.3456 10.323 80.3364 10.2204C80.2753 9.54939 80.1445 8.88667 79.946 8.2432C79.3668 6.22126 78.2139 4.41424 76.6291 3.04459C75.6715 2.22459 74.5914 1.56232 73.4288 1.08229C72.1588 0.56646 70.824 0.230618 69.4625 0.0843548C69.3885 0.0545099 69.3053 0.0955466 69.2313 0.0526446L68.9298 0.0377222C68.8114 0.00601196 68.6856 0.0563752 68.5709 0.00601196H66.8597C66.7395 0.0507793 66.6118 0.00601196 66.4897 0.0358569L66.227 0.0470487C66.1567 0.091816 66.0735 0.0470487 66.0013 0.0787589C65.6313 0.129122 65.2614 0.158967 64.8914 0.233579C63.8415 0.433804 62.8157 0.74646 61.8316 1.16623C60.5834 1.71066 59.4376 2.46786 58.4444 3.4046C58.1009 3.72991 57.783 4.08164 57.4936 4.45663C56.6925 5.48316 56.0753 6.64273 55.6695 7.8832C55.4119 8.65344 55.2419 9.45068 55.1627 10.2596C55.1312 10.3323 55.1775 10.4163 55.1294 10.4853L55.1183 10.7073C55.085 10.8136 55.1312 10.9292 55.0887 11.0356L55.0739 11.6474C55.0535 11.8103 55.0535 11.9751 55.0739 12.138L55.0831 12.7181C55.1331 12.8188 55.0831 12.9289 55.1146 13.0314C55.1479 13.218 55.1534 13.4269 55.1701 13.6227C55.2053 14.0183 55.2709 14.4106 55.3661 14.796C55.5398 15.5454 55.7877 16.2753 56.1061 16.9747C56.5351 17.9195 57.0876 18.8021 57.7488 19.5992C58.0189 19.9163 58.3038 20.2073 58.6035 20.502C58.8647 20.7679 59.1421 21.0171 59.4341 21.2481C60.6251 22.1691 61.9722 22.8644 63.4096 23.3C64.2959 23.5733 65.2078 23.754 66.1308 23.839C66.2048 23.8651 66.2881 23.826 66.3602 23.8689L66.6636 23.8819C66.8098 23.9192 66.9651 23.8614 67.1113 23.9136H68.3008C68.4617 23.8577 68.6301 23.9136 68.791 23.8782H69.0556C69.1407 23.826 69.2405 23.8782 69.3238 23.8428C69.9877 23.7746 70.6461 23.6592 71.294 23.4977C73.0726 23.0623 74.7379 22.2475 76.1777 21.1082C77.4013 20.1334 78.4094 18.9116 79.1376 17.5212C79.8217 16.1917 80.2498 14.7436 80.3993 13.2534C80.4344 13.1639 80.3845 13.0669 80.4326 12.9792L80.4474 12.6248C80.4529 12.1249 80.4566 11.6119 80.4326 11.1064ZM73.3585 16.8889C72.2582 18.2218 70.6972 19.0838 68.9908 19.3007C67.5405 19.5152 66.1105 19.4071 64.7563 18.8102C62.3237 17.7357 60.977 15.8257 60.5866 13.2012C60.3245 11.6626 60.5175 10.0803 61.1416 8.6517C62.1739 6.3667 63.9313 4.9957 66.3824 4.57974C68.1084 4.28689 69.7881 4.48088 71.3495 5.33706C73.2993 6.40588 74.4203 8.09025 74.8643 10.254C74.9715 10.8026 75.0236 11.3606 75.0197 11.9197C75.0215 13.757 74.5498 15.447 73.3603 16.8814L73.3585 16.8889Z" fill="#6E80A3"/>
</svg>
