<svg width="239" height="45" viewBox="0 0 239 45" fill="none" xmlns="http://www.w3.org/2000/svg">
<path fill-rule="evenodd" clip-rule="evenodd" d="M34.5043 0.205078C34.5723 0.325152 34.6465 0.441679 34.7264 0.554284C35.3214 1.3044 35.2682 1.70946 34.6538 2.44979L34.1412 3.06502L34.1347 3.07239C32.9708 4.46874 31.8053 5.86717 30.7427 7.33868C30.3046 7.94136 29.96 8.61004 29.6152 9.27953C29.3838 9.7288 29.1522 10.1784 28.8919 10.6086C28.6824 10.9536 28.3122 11.3294 27.9504 11.416C27.625 11.4928 27.0242 11.2959 26.8791 11.0333C26.6777 10.6701 26.6079 10.0346 26.798 9.68811C27.8219 7.81778 28.8597 5.94325 30.0582 4.18323C30.6175 3.35789 31.3023 2.61794 31.9865 1.87857C32.3155 1.52303 32.6445 1.16761 32.9594 0.802924C33.0718 0.676916 33.1686 0.530788 33.2649 0.385547C33.3053 0.324709 33.3457 0.264041 33.3869 0.205078H34.5043ZM0.279092 20.3794C0.314013 20.3643 0.342386 20.3454 0.359028 20.3194C0.668948 19.8249 1.17202 19.6573 1.61617 19.8766C1.96947 20.0498 2.38715 20.5052 2.41225 20.8614C2.56749 23.1173 2.64224 25.3798 2.71672 27.6412L2.72654 27.9391C2.75327 28.766 2.25866 29.2395 1.50568 29.1962C0.946949 29.1641 0.586558 28.8498 0.490253 28.3162C0.424231 27.9458 0.383854 27.571 0.343477 27.196C0.312103 26.9049 0.280729 26.6137 0.237351 26.3243C0.22753 26.2586 0.205977 26.1945 0.178968 26.1311C0.152505 26.0697 0.120858 26.009 0.0892113 25.9481L0.0883929 25.9458C0.0572917 25.8861 0.0261905 25.8263 0 25.7656L0.00272817 20.459C0.0411954 20.4449 0.0856647 20.4343 0.130134 20.4236C0.183061 20.4109 0.235987 20.3981 0.279092 20.3794ZM28.878 38.3174C30.2999 40.5077 31.9243 42.5289 33.9456 44.2051H34.225C34.3221 44.1444 34.4233 44.0908 34.5281 44.0444C35.4682 43.7064 35.6957 42.8934 35.0644 42.1364C33.6368 40.4267 32.2121 38.7151 30.7902 37.0016C30.2915 36.3996 29.7019 36.2529 29.1432 36.6091C28.5692 36.9793 28.4366 37.6358 28.878 38.3174ZM238.301 15.4305L237.296 15.3578V11.8253L237.075 11.8001C237.006 12.0841 236.932 12.3673 236.859 12.6506C236.691 13.3053 236.522 13.9601 236.4 14.6231C236.277 15.2866 236.008 15.5758 235.266 15.3215C234.977 14.137 234.676 12.9148 234.377 11.6898L234.192 11.7066V15.3383H233.315V10.353H234.76L235.665 13.6314L235.805 13.6593L236.415 11.4593C236.738 10.3055 236.74 10.3055 237.958 10.2943H237.962C238.076 10.2943 238.191 10.2734 238.306 10.2622L238.301 15.4305ZM177.436 20.7731C177.436 21.0666 177.437 21.3626 177.437 21.6617C177.567 21.6195 177.684 21.5789 177.793 21.5409C177.973 21.4784 178.132 21.423 178.292 21.3796C179.569 21.0443 180.689 21.3293 181.622 22.2651C182.555 23.201 182.828 24.3492 182.473 25.6064C182.001 27.2812 180.459 28.2715 178.742 28.0508C177.936 27.9572 177.193 27.5719 176.653 26.9676C176.112 26.3632 175.812 25.5818 175.808 24.7711C175.785 23.4038 175.786 22.0366 175.787 20.6695C175.788 19.9191 175.788 19.1687 175.785 18.4183C175.785 18.2295 175.766 18.04 175.747 17.8504C175.738 17.7692 175.73 17.688 175.723 17.6067H171.882V40.5007H175.837V31.2816C177.331 31.9829 178.794 32.2287 180.29 31.9661C184.445 31.2384 186.99 27.7086 186.447 23.4985C185.94 19.5721 181.684 16.5563 177.867 17.4377C177.7 17.4754 177.457 17.7087 177.457 17.8568C177.431 18.8191 177.433 19.7822 177.436 20.7731ZM100.435 22.0179C99.816 21.001 99.063 20.6211 98.1873 20.5582C96.7905 20.4632 95.6198 20.9689 94.8878 22.2204C94.1196 23.5349 94.2033 24.8507 95.0695 26.0897C95.9076 27.2839 97.0824 27.8496 98.5128 27.5675C99.26 27.4278 99.9794 27.0297 100.652 26.6484C101.025 26.4361 101.27 26.3425 101.64 26.6121C102.193 27.0168 102.762 27.4037 103.343 27.799L103.345 27.8005C103.626 27.9913 103.909 28.1841 104.195 28.3818C103.002 29.8834 101.58 30.8514 99.7391 31.2355C96.6003 31.892 93.5791 30.7872 91.8036 28.2631C89.749 25.3437 90.1498 21.279 92.741 18.7535C95.2747 16.2881 99.2614 15.9794 102.006 18.1012C103.649 19.3709 104.541 21.096 104.723 23.1745C104.748 23.468 104.765 23.7625 104.781 24.0577L104.782 24.0794L104.798 24.3659L104.813 24.6165C104.821 24.7411 104.831 24.8657 104.842 24.9903C104.889 25.5197 104.716 25.7321 104.143 25.7237C103.748 25.7178 103.353 25.7102 102.958 25.7027L102.955 25.7026L102.951 25.7025L102.948 25.7024C101.203 25.6688 99.4564 25.6352 97.7178 25.7432C96.268 25.8326 95.6716 24.3688 96.1463 23.2848C96.504 22.4649 97.141 22.0207 98.0602 22.0277L100.435 22.0179ZM203.406 17.5746H199.634V18.3317C199.633 18.8987 199.634 19.4658 199.636 20.033L199.636 20.2458C199.639 21.7245 199.641 23.2038 199.619 24.683C199.591 26.5799 198.129 28.1053 196.322 28.1877C194.46 28.2729 192.853 26.9836 192.61 25.2083C192.347 23.2876 193.537 21.5513 195.473 21.2301C195.976 21.1464 196.504 21.211 197.051 21.278C197.307 21.3094 197.567 21.3412 197.831 21.3586L197.832 20.9801L197.833 20.6007C197.836 19.7229 197.84 18.7943 197.807 17.8665C197.803 17.7185 197.497 17.4545 197.316 17.4391L197.282 17.4363C196.58 17.3785 195.858 17.319 195.17 17.4042C193.315 17.6315 191.617 18.5585 190.422 19.9958C189.227 21.4332 188.626 23.2724 188.741 25.1378C188.857 27.0033 189.68 28.7543 191.043 30.0332C192.406 31.3121 194.206 32.0224 196.075 32.0192C196.832 32.0106 197.586 31.8543 198.353 31.6954L198.355 31.6949C198.713 31.6207 199.074 31.546 199.439 31.4856C199.328 31.944 199.658 31.936 200.001 31.9277C200.046 31.9267 200.092 31.9256 200.137 31.9256L200.42 31.9244L200.613 31.9226L200.877 31.9195L200.885 31.9194C201.474 31.9121 202.063 31.9048 202.652 31.9381C203.276 31.9717 203.48 31.7971 203.48 31.1336C203.452 26.8816 203.452 22.6185 203.452 18.361C203.452 18.111 203.423 17.8539 203.406 17.5746ZM83.4701 30.8528C83.1097 30.8974 82.7393 30.958 82.362 31.0197C81.5574 31.1511 80.7215 31.2877 79.8859 31.2858C76.6396 31.2858 73.6504 28.6235 73.1181 25.4108C72.4197 21.1644 75.1017 17.4489 79.3522 16.7756C82.6863 16.2532 86.078 18.516 87.0907 22.0123C87.3401 22.905 87.4784 23.8249 87.5027 24.7515C87.5378 25.7826 87.5346 26.8153 87.531 27.8475L87.5291 28.7325C87.5291 28.9494 87.5294 29.1662 87.5308 29.3829L87.5324 29.6146C87.5349 29.8775 87.5387 30.1404 87.5447 30.403C87.5613 31.0777 87.3141 31.2551 86.6981 31.2216C86.3587 31.2025 86.0183 31.2067 85.6781 31.2109C85.2967 31.2156 84.9153 31.2203 84.5358 31.1922C84.5003 31.1897 84.4651 31.1854 84.4299 31.1798L84.4021 31.1751L84.3653 31.1679C84.3181 31.1581 84.2709 31.146 84.2237 31.132C84.1956 31.1237 84.1675 31.1148 84.1391 31.1053C84.0338 31.07 83.9277 31.0277 83.8194 30.9844C83.7059 30.9391 83.5899 30.8927 83.4701 30.8528ZM80.2574 27.5074C81.1744 27.502 82.0523 27.136 82.7019 26.4887C83.3512 25.8413 83.72 24.9644 83.7285 24.0475C83.7285 22.1548 82.0998 20.5247 80.2113 20.54C79.7516 20.5468 79.2979 20.644 78.8762 20.8261C78.4541 21.0082 78.0722 21.2716 77.7522 21.6013C77.4319 21.9311 77.1798 22.3206 77.0104 22.7477C76.8407 23.1749 76.7569 23.6313 76.764 24.0908C76.7684 24.5447 76.8622 24.9933 77.0401 25.4109C77.2183 25.8284 77.4769 26.2067 77.8015 26.5241C78.1262 26.8415 78.51 27.0918 78.9315 27.2605C79.3528 27.4292 79.8035 27.5131 80.2574 27.5074ZM132.107 29.0132C132.106 28.7441 132.105 28.4704 132.105 28.1905L131.882 28.1906C131.545 28.1908 131.278 28.1909 131.014 28.1863C129.457 28.1779 128.782 27.5563 128.758 26.0086C128.744 24.9059 128.743 23.8033 128.743 22.7006L128.741 21.6671L128.739 20.8866C128.738 20.5224 128.735 20.1583 128.732 19.7942C128.727 19.3639 128.902 19.2089 129.301 19.2089H131.117C131.471 19.2103 131.689 19.1139 131.689 18.6949C131.687 18.5544 131.685 18.4138 131.685 18.2732C131.685 18.0838 131.685 17.8944 131.686 17.7048C131.687 17.1275 131.689 16.5495 131.658 15.9738C131.648 15.8058 131.378 15.6286 131.188 15.5034L131.17 15.4919C131.098 15.4474 130.991 15.4586 130.887 15.4696C130.861 15.4723 130.835 15.475 130.81 15.4769L130.776 15.4789L130.751 15.4794C129.743 15.478 129.236 15.4773 128.982 15.2236C128.725 14.9675 128.725 14.4534 128.725 13.4205V11.8001L127.903 12.3365C126.883 13.0019 125.935 13.6202 124.995 14.2516C124.936 14.3037 124.889 14.3684 124.858 14.4409C124.827 14.5133 124.812 14.5918 124.815 14.6706C124.893 15.3285 124.603 15.5646 123.977 15.4849C123.513 15.4263 123.359 15.6582 123.373 16.0982C123.375 16.1722 123.377 16.2463 123.378 16.3204L123.381 16.5076C123.381 16.6416 123.381 16.7757 123.381 16.9098L123.377 17.3553C123.375 17.5648 123.373 17.7744 123.373 17.9839C123.372 18.575 123.371 18.8711 123.518 19.0352C123.666 19.1999 123.961 19.2316 124.555 19.2951L124.559 19.2955C124.643 19.3253 124.723 19.3666 124.795 19.4184V20.2244C124.795 20.9393 124.786 21.6542 124.777 22.3689V22.384C124.758 23.9474 124.739 25.5098 124.808 27.0688C124.973 30.8067 128.07 32.8098 131.678 31.7845C131.848 31.737 132.085 31.4996 132.085 31.3445C132.113 30.5813 132.111 29.8182 132.107 29.0132ZM151.37 28.5942C151.37 29.1736 151.374 29.7283 151.374 30.27L151.373 30.5398C151.372 30.6691 151.372 30.7977 151.37 30.9259C151.369 31.1001 151.366 31.2733 151.362 31.4462C151.36 31.5493 151.357 31.6523 151.354 31.7552C151.332 31.8469 151.289 31.9321 151.227 32.0037C151.166 32.0754 151.088 32.1314 151.001 32.1672C147.442 33.2847 144.21 31.2411 144.057 27.6611C143.969 25.5546 144.006 23.4416 144.043 21.3316L144.057 20.4716C144.066 19.8319 143.859 19.5553 143.219 19.6335C142.661 19.6991 142.494 19.4394 142.521 18.9016C142.563 18.1124 142.557 17.319 142.521 16.527C142.501 16.0423 142.669 15.8286 143.158 15.8872C143.799 15.9682 144.122 15.7476 144.064 15.0491C144.071 14.95 144.1 14.8536 144.148 14.7668C144.169 14.7301 144.192 14.6955 144.219 14.6634C144.255 14.6194 144.297 14.58 144.344 14.5463C145.193 13.9737 146.053 13.4172 146.998 12.8049L147.009 12.7973L147.918 12.208V14.4024L147.919 14.7017C147.92 15.3333 147.921 15.6302 148.069 15.7678C148.2 15.8899 148.448 15.8867 148.916 15.8806C149.049 15.8788 149.2 15.8768 149.371 15.8775L149.391 15.8776C150.942 15.8844 150.944 15.8844 150.945 17.4601C150.945 17.995 150.926 18.5314 150.953 19.065C150.976 19.4966 150.797 19.6461 150.385 19.6349C150.29 19.6324 150.196 19.6306 150.101 19.6295C150.006 19.6283 149.91 19.6277 149.815 19.6275C149.586 19.6271 149.357 19.6291 149.128 19.6312C148.918 19.633 148.709 19.6349 148.499 19.6349C148.119 19.6349 147.94 19.8025 147.94 20.1783C147.949 20.8322 147.954 21.486 147.958 22.1397C147.97 23.7203 147.982 25.3 148.041 26.8761C148.083 27.9935 148.798 28.5704 149.931 28.6053C150.096 28.6053 150.259 28.6038 150.427 28.6019L150.576 28.6002C150.822 28.5972 151.081 28.5942 151.37 28.5942ZM224.401 21.8475L227.74 20.0316C226.751 18.4686 225.572 17.386 223.642 17.3399C221.571 17.2966 219.779 18.2772 219.128 19.9716C218.459 21.7148 219.062 23.5796 220.738 24.9121C220.873 25.0187 221.009 25.1237 221.146 25.228L221.373 25.3992L221.582 25.5566C221.713 25.655 221.844 25.7533 221.975 25.8523C222.118 25.9611 222.261 26.0706 222.403 26.1818C222.486 26.2471 222.571 26.3113 222.656 26.3756C222.964 26.6075 223.275 26.8417 223.505 27.1359C223.651 27.3234 223.71 27.5806 223.769 27.8379C223.785 27.9086 223.801 27.9793 223.819 28.0486C223.83 28.0914 223.842 28.1337 223.855 28.1751C223.726 28.2021 223.59 28.2472 223.454 28.2922C223.162 28.3892 222.871 28.4859 222.65 28.4C222.317 28.2705 222.072 27.8586 221.861 27.5043L221.812 27.4222C221.726 27.2779 221.708 27.0928 221.687 26.879L221.687 26.8747V26.8716C221.677 26.7688 221.666 26.6595 221.647 26.545L218.275 28.4741C218.6 30.4491 219.631 31.6406 221.488 32.0443C222.281 32.2093 223.095 32.2456 223.9 32.1519C226.048 31.9116 227.581 30.4883 227.877 28.4517C228.124 26.7406 227.551 25.2781 226.189 24.1844C226.043 24.0674 225.896 23.9521 225.748 23.8379C225.432 23.5947 225.112 23.3568 224.793 23.1188L224.786 23.1137L224.784 23.1116C224.249 22.7139 223.714 22.3159 223.199 21.8936C223.083 21.7993 223.067 21.5847 223.05 21.3692C223.042 21.2687 223.035 21.1681 223.017 21.0792C223.11 21.0938 223.205 21.1029 223.3 21.112C223.524 21.1335 223.749 21.155 223.939 21.2482C224.074 21.3144 224.167 21.4694 224.263 21.6305L224.305 21.7L224.324 21.7312C224.348 21.771 224.374 21.8102 224.401 21.8475ZM215.686 20.04L212.38 21.8405C212.338 21.7819 212.301 21.722 212.264 21.6639C212.179 21.5283 212.099 21.4023 211.988 21.3251C211.757 21.1659 211.497 21.0517 211.224 20.9884C211.132 20.9661 210.873 21.191 210.89 21.251C210.956 21.4997 211.038 21.8098 211.222 21.9494C211.692 22.3228 212.175 22.6799 212.657 23.0369L213.114 23.376C213.319 23.5287 213.523 23.6823 213.725 23.8381C213.874 23.9522 214.021 24.0675 214.167 24.1844C215.506 25.2586 216.085 26.6987 215.86 28.3846C215.58 30.4352 214.091 31.8767 211.937 32.1337C211.018 32.2379 210.087 32.1831 209.186 31.9717C207.429 31.5526 206.582 30.2368 206.222 28.4796L209.614 26.5394C209.624 26.5965 209.633 26.6517 209.641 26.7052L209.663 26.8649C209.69 27.0743 209.714 27.2557 209.782 27.4194C209.909 27.7267 210.062 28.0676 210.299 28.2771C210.696 28.6235 211.528 28.5564 211.777 28.2142C212.133 27.7155 211.736 27.3314 211.439 27.0716C210.831 26.5427 210.191 26.049 209.551 25.5555L209.546 25.5519L209.536 25.544C209.38 25.4232 209.223 25.3024 209.067 25.1811C208.948 25.0886 208.829 24.9957 208.711 24.9024C207.746 24.1411 207.043 23.2024 206.895 21.9508C206.616 19.5595 208.166 17.6933 210.566 17.3888C212.879 17.1067 214.541 17.9797 215.686 20.04ZM156.046 36.9407L156.046 36.9433C156.011 37.0325 155.973 37.1286 155.93 37.2349C156.297 37.2349 156.655 37.2327 157.007 37.2304C157.86 37.225 158.679 37.2198 159.499 37.2475C160.02 37.2643 160.272 37.0799 160.488 36.6091C163.323 30.5041 166.159 24.3995 168.998 18.2954C169.021 18.242 169.044 18.1879 169.066 18.1314L169.117 17.9994L169.154 17.902C169.19 17.8065 169.23 17.7014 169.277 17.5816C169.05 17.5816 168.826 17.5823 168.605 17.5834L168.144 17.5859C167.261 17.5911 166.413 17.596 165.567 17.5704C165.053 17.555 164.785 17.7185 164.567 18.1976C161.798 24.2803 159.025 30.3625 156.249 36.4443C156.179 36.6004 156.118 36.7557 156.046 36.9407ZM139.628 32.2608H135.298C135.292 32.1443 135.284 32.0338 135.277 31.9269L135.269 31.7765L135.265 31.6694C135.263 31.6308 135.263 31.5924 135.263 31.5541C135.263 30.7779 135.264 30.0017 135.265 29.2255L135.268 27.0688V26.9492C135.273 23.999 135.278 21.0487 135.263 18.0984C135.263 17.4321 135.47 17.2603 136.101 17.2883C137.062 17.334 138.026 17.3124 138.989 17.2908L138.992 17.2907L139.099 17.2883C139.477 17.2883 139.642 17.4056 139.642 17.8079C139.627 22.0078 139.628 26.2024 139.628 30.4535V30.4567V32.2608ZM70.6144 25.0077L70.6153 24.1132L70.6142 22.236C70.6123 20.5805 70.6106 18.9243 70.6207 17.2659C70.6237 16.798 70.4909 16.5857 69.9881 16.601C69.0103 16.629 68.0325 16.6318 67.0547 16.601C66.5282 16.5884 66.3689 16.7952 66.3689 17.2994C66.3828 21.8177 66.3828 26.3341 66.3689 30.8487C66.3661 31.3822 66.5282 31.6029 67.0869 31.582C68.0172 31.5443 68.9516 31.5401 69.8806 31.582C70.4728 31.6099 70.6349 31.3878 70.6278 30.8179C70.6082 29.1558 70.6109 27.4936 70.6136 25.8315L70.6144 25.0077ZM113.605 20.5317C113.605 20.2624 113.604 19.9956 113.602 19.7307V19.725C113.597 18.9272 113.592 18.1471 113.634 17.3693C113.644 17.1989 114.022 16.9279 114.246 16.9083C117.613 16.6038 120.253 18.7409 120.464 22.1185C120.591 24.1827 120.601 26.2544 120.61 28.3264V28.3406C120.615 29.2154 120.619 30.0902 120.631 30.9646C120.622 31.0668 120.602 31.1678 120.573 31.2663H116.723L116.709 31.0428C116.696 30.8526 116.684 30.6617 116.68 30.4701L116.671 29.846L116.666 29.4405L116.66 28.8537L116.655 28.2461C116.641 26.5711 116.626 24.8959 116.547 23.2248C116.451 21.2078 115.702 20.5722 113.605 20.5317ZM111.837 25.833C111.838 25.2396 111.84 24.6464 111.84 24.0531L111.831 24.0754C111.831 21.8838 111.819 19.6964 111.84 17.5103C111.84 16.9935 111.726 16.7351 111.141 16.7616C110.257 16.7965 109.371 16.777 108.487 16.7616C108.078 16.7477 107.9 16.8916 107.9 17.3204C107.904 21.8098 107.899 26.3001 107.885 30.7914C107.884 31.1894 108.032 31.3235 108.419 31.3166C109.324 31.2998 110.235 31.283 111.14 31.3235C111.689 31.3487 111.861 31.1769 111.852 30.6182C111.83 29.022 111.833 27.4273 111.837 25.833ZM33.5658 21.2804L33.7145 20.4431C33.912 19.3265 34.1742 17.8468 34.4541 16.3705C34.518 16.0752 34.6522 15.7997 34.8453 15.5674C35.221 15.1106 35.7394 15.0827 36.2422 15.3215C36.8205 15.6009 36.8972 16.1386 36.7924 16.6974C36.7139 17.1134 36.6211 17.5272 36.5284 17.9412C36.4233 18.41 36.3183 18.8789 36.2337 19.3513C35.5353 23.3756 36.3161 27.1442 38.2116 30.7201C38.2539 30.7979 38.2981 30.8756 38.3426 30.9539C38.3898 31.0366 38.4373 31.1198 38.4831 31.2041C38.5494 31.3267 38.6127 31.4516 38.667 31.5806C38.9562 32.265 38.7914 32.8545 38.2479 33.1674C37.6363 33.5221 37.0677 33.4034 36.6487 32.705C36.1344 31.8485 35.6712 30.9623 35.2617 30.051C34.1259 27.5158 33.6872 24.8241 33.5658 21.2804ZM44.0308 10.1449C40.5723 13.0838 38.7103 16.8175 38.4588 21.212V21.7734C38.4602 22.6744 38.8694 23.2681 39.5566 23.2848C40.2439 23.3016 40.6364 22.775 40.7483 21.8559C40.8588 20.7494 41.035 19.6505 41.2762 18.5649C41.941 15.8481 43.5209 13.6984 45.5993 11.8826C46.2797 11.2847 46.3312 10.6827 45.8342 10.1239C45.3704 9.60432 44.672 9.59873 44.0308 10.1449ZM39.6726 40.259C39.5629 40.3845 39.4658 40.5113 39.373 40.6321C39.1799 40.8839 39.0066 41.1098 38.7829 41.2438C38.3276 41.5134 37.815 41.3835 37.4516 40.9798C37.0445 40.5298 36.6244 40.0886 36.2042 39.6473L36.2026 39.6459C35.1618 38.5522 34.121 37.4584 33.278 36.2306C32.3289 34.848 31.6171 33.2981 30.9083 31.7549L30.8971 31.7309C30.7261 31.3582 30.555 30.986 30.381 30.6168C30.2328 30.3039 30.3389 29.6851 30.5722 29.4253C30.8057 29.1655 31.4103 28.9881 31.7374 29.1026C32.1033 29.2297 32.4566 29.6767 32.6159 30.0664C33.4777 32.1617 34.4904 34.1759 35.932 35.9331C36.503 36.6283 37.1255 37.2797 37.7487 37.9318C38.1211 38.3214 38.4935 38.7113 38.8555 39.1109C39.1389 39.4168 39.3485 39.7925 39.6726 40.259ZM24.5326 16.7603C24.3271 18.5035 24.1512 20.2649 24.0115 21.5765C24.0409 22.0782 24.0628 22.535 24.083 22.9605L24.0854 23.0073V23.0113C24.1288 23.9166 24.1654 24.6815 24.2518 25.4401C24.3836 26.523 24.5699 27.5985 24.8106 28.6626C24.974 29.4127 25.5745 29.8304 26.1528 29.7144C26.8275 29.5775 27.1726 29.0314 27.0845 28.2268C27.0673 28.0416 27.0403 27.8574 27.0035 27.6751C26.4014 24.901 26.3261 22.1017 26.6054 19.2871C26.6409 18.9316 26.6813 18.5766 26.7217 18.2218L26.7274 18.17C26.7901 17.6206 26.8529 17.0713 26.8987 16.52C26.9489 15.911 26.5607 15.478 26.0314 15.4375C25.6473 15.4081 25.1876 15.6791 24.8537 15.9375C24.6512 16.0926 24.5675 16.4711 24.5326 16.7603ZM4.84142 22.3056C4.9811 20.2369 5.10114 18.4309 5.24082 16.6262C5.30248 15.8272 5.88058 15.2922 6.54271 15.369C7.25231 15.4542 7.64353 16.1079 7.5625 16.9209C7.27468 19.8542 7.1309 22.7987 7.44928 25.7474C7.54422 26.6232 7.61406 27.5046 7.64898 28.3846C7.68254 29.1962 7.31533 29.6418 6.62783 29.72C6.01617 29.7912 5.4588 29.3275 5.38487 28.5746C5.22882 26.9921 5.09814 25.4066 4.97565 23.9174L4.91399 23.1733L4.84142 22.3056ZM153.933 17.5858L158.593 27.3161L158.731 27.0176L159.14 26.1349L159.161 26.0887C159.683 24.964 160.179 23.8937 160.654 22.8127C160.701 22.705 160.695 22.5596 160.663 22.4149C160.655 22.3787 160.646 22.3424 160.635 22.3069L160.619 22.2557L160.604 22.2125L160.594 22.1864C160.583 22.157 160.571 22.1286 160.559 22.1017C160.417 21.7838 160.256 21.4719 160.094 21.16C159.805 20.6002 159.515 20.0407 159.336 19.4477C158.855 17.8749 157.914 17.3008 156.307 17.5648C155.811 17.6463 155.297 17.6269 154.745 17.6059L154.449 17.5952C154.28 17.5898 154.109 17.5858 153.933 17.5858ZM84.6667 8.95785C85.0828 9.2145 85.4854 9.463 85.8799 9.70912C86.3203 9.98371 86.7502 10.2553 87.1772 10.5318C87.2678 10.5968 87.3436 10.6802 87.3995 10.7764C87.4557 10.8727 87.4909 10.9798 87.5027 11.0906C87.5201 13.0057 87.5188 14.9209 87.5174 16.9066V17.006L87.5168 18.6683C86.5391 17.3637 85.4342 16.4334 84.0723 15.83C83.9866 15.7813 83.9132 15.7135 83.8578 15.6318C83.8027 15.5502 83.767 15.4569 83.7536 15.3592C83.737 13.5426 83.7381 11.7304 83.7391 9.83212L83.7397 8.3849C84.057 8.5816 84.3653 8.77185 84.6667 8.95785ZM51.4547 27.4555C51.6787 27.5782 51.9024 27.7006 52.1182 27.8301L52.2162 27.6653C52.7902 27.71 53.1184 27.4306 53.3418 26.9124C53.5655 26.3942 53.3435 26.0017 52.9675 25.6818C52.7427 25.5175 52.5051 25.3718 52.2565 25.246C50.9421 24.4652 50.188 23.3351 50.4003 21.7888C50.4805 21.2081 50.7541 20.6479 51.0226 20.0984C51.0815 19.9779 51.1402 19.8579 51.1964 19.7383C51.6113 18.8569 51.2117 17.9266 50.3332 17.8889C49.6975 17.8624 49.3219 18.2968 48.9991 18.7703C47.3497 21.1868 47.7799 24.6607 50.023 26.545C50.4497 26.905 50.9536 27.181 51.4547 27.4555ZM16.0204 15.362C16.7453 15.362 17.2857 16.0171 17.2355 16.7589C17.0958 18.9351 16.9562 21.1128 16.8571 23.2918C16.8407 23.6389 16.8762 23.9881 16.9117 24.3376C16.9245 24.4662 16.9376 24.5949 16.948 24.7235C16.96 24.8713 16.9687 25.0189 16.9701 25.1663C16.9701 25.9556 16.5079 26.4891 15.8526 26.5199C15.6938 26.523 15.5359 26.4945 15.3883 26.4359C15.2404 26.3773 15.1059 26.2899 14.9924 26.1787C14.8786 26.0675 14.7886 25.9348 14.727 25.7883C14.6653 25.6418 14.6334 25.4845 14.6334 25.3256C14.5592 23.6564 14.5229 21.983 14.5619 20.3138C14.5848 19.3575 14.6885 18.402 14.7922 17.4474C14.8214 17.1778 14.8505 16.9082 14.8778 16.6387C14.949 15.8802 15.4349 15.3662 16.0204 15.362ZM19.343 21.7909C19.3441 21.9453 19.3447 22.0997 19.3447 22.2539L19.1602 22.2749C19.2325 22.8881 19.3027 23.5016 19.3728 24.1152C19.5414 25.5913 19.7102 27.0676 19.9075 28.5397C20.0193 29.375 20.5683 29.8094 21.1955 29.7144C21.9441 29.5999 22.2736 29.0802 22.1732 28.1541C22.1514 27.9548 22.1285 27.7556 22.105 27.5564L22.0778 27.3276L22.0134 26.7947C21.8955 25.8224 21.7777 24.85 21.7108 23.8743C21.6546 23.0603 21.6486 22.2436 21.6426 21.4266C21.6391 20.9215 21.6355 20.4163 21.62 19.9115C21.5949 19.1377 21.2053 18.7242 20.5516 18.7102C19.86 18.6976 19.3599 19.1921 19.3447 19.9548C19.3346 20.4632 19.3378 20.9746 19.3414 21.4863L19.343 21.7909ZM137.489 15.8048C136.809 15.8147 136.152 15.5565 135.66 15.0861C135.168 14.6157 134.881 13.9708 134.861 13.2905C134.857 12.9518 134.921 12.6158 135.049 12.302C135.177 11.9882 135.365 11.703 135.604 11.4628C135.843 11.2226 136.127 11.0323 136.44 10.9029C136.754 10.7736 137.089 10.7077 137.428 10.7092C138.886 10.6994 140.027 11.7945 140.044 13.2235C140.047 13.561 139.983 13.8957 139.856 14.2084C139.729 14.5211 139.541 14.8056 139.304 15.0455C139.066 15.2854 138.784 15.476 138.472 15.6063C138.161 15.7366 137.827 15.8041 137.489 15.8048ZM65.88 12.5432C65.8715 13.9107 67.0771 15.0883 68.4878 15.0883C69.1671 15.0805 69.8159 14.8048 70.2928 14.3211C70.7697 13.8373 71.0362 13.1848 71.0343 12.5055C71.0267 11.8369 70.7541 11.1987 70.2764 10.7308C69.7987 10.2628 69.1551 10.0034 68.4865 10.0094C67.8061 10.0037 67.1507 10.2666 66.6627 10.7409C66.1749 11.2153 65.8936 11.8628 65.88 12.5432ZM49.7313 30.2272C49.6882 30.2842 49.6471 30.3402 49.6069 30.3948C49.4411 30.6202 49.2929 30.8213 49.1011 30.9688C48.9124 31.115 48.6761 31.1861 48.4379 31.1683C48.2 31.1505 47.9769 31.0451 47.8118 30.8724L47.5387 30.6114L47.5363 30.609L47.5346 30.6078C46.657 29.7701 45.7758 28.9289 45.0113 27.9963C44.5552 27.4397 44.2676 26.7281 43.9902 26.0415L43.9078 25.8382C43.6172 25.123 43.8827 24.5531 44.5099 24.2793C45.1371 24.0056 45.7237 24.2011 46.0309 24.9386C46.7001 26.5577 47.7905 27.9679 49.1893 29.023C49.3696 29.163 49.4899 29.3834 49.6271 29.6351L49.6288 29.6374C49.6629 29.7 49.6981 29.7644 49.7354 29.83C49.7766 29.9026 49.8208 29.9766 49.8694 30.051C49.8208 30.1105 49.775 30.1694 49.7313 30.2272ZM35.9868 7.88298C36.0253 7.76969 36.0695 7.64062 36.1262 7.48951C36.097 7.45752 36.0681 7.42345 36.0392 7.38799C35.992 7.32995 35.9448 7.26815 35.8973 7.20547C35.7189 6.97054 35.5312 6.72313 35.281 6.6137C35.0349 6.49318 34.7518 6.4719 34.4907 6.55433C34.2293 6.63678 34.0097 6.81657 33.8771 7.05651C32.8911 8.70102 31.9278 10.3614 30.9872 12.0376C30.8573 12.2625 30.7945 12.6857 30.92 12.8757C31.1427 13.2298 31.4698 13.506 31.8561 13.6663C32.4104 13.8535 32.8088 13.4875 33.0881 13C33.5827 12.1447 34.0828 11.2916 34.5823 10.4395C34.9842 9.75372 35.3858 9.06861 35.7838 8.3835C35.8256 8.31052 35.8599 8.23335 35.8935 8.14656C35.908 8.10921 35.9221 8.0701 35.9366 8.02877L35.9827 7.89423L35.986 7.88503L35.9868 7.88298ZM49.7073 14.2502C49.6102 14.3959 49.53 14.5355 49.4558 14.6647C49.3164 14.9069 49.1985 15.1123 49.0299 15.2517C47.8282 16.2142 46.8586 17.4349 46.1929 18.8234C45.8494 19.5316 45.2612 19.7048 44.6327 19.3933C44.0041 19.0818 43.7946 18.4826 44.0878 17.8079C44.8591 16.0451 46.0044 14.5631 47.5884 13.4777C47.6942 13.4131 47.8069 13.3609 47.9239 13.3219C48.0153 13.2916 48.1095 13.2692 48.2049 13.2552C48.4235 13.2232 48.6461 13.2358 48.8594 13.2919C49.0864 13.3628 49.2556 13.6116 49.4392 13.8812C49.5232 14.0048 49.6102 14.1329 49.7073 14.2502ZM42.7137 28.9979C42.4679 28.7311 42.12 28.5648 41.9803 28.4713C40.7595 28.481 40.2539 29.3778 40.7595 30.248C41.666 31.7955 42.8684 33.1496 44.2976 34.2332C44.873 34.6759 45.5995 34.6368 46.0003 34.1787C46.4682 33.6409 46.3776 33.0584 45.8189 32.455C45.2926 31.8849 44.7781 31.3042 44.2635 30.7236L44.2464 30.7038C43.7392 30.1316 43.232 29.5597 42.7137 28.9979ZM12.4708 28.3371C12.5169 29.1193 12.0894 29.6753 11.4428 29.7214C10.842 29.7661 10.2749 29.3121 10.1856 28.5732C9.99276 26.9659 9.83834 25.354 9.72185 23.7374C9.66592 22.9566 10.2358 22.3531 10.8909 22.3503C11.5462 22.3475 12.0405 22.93 12.0951 23.7053C12.1726 24.8044 12.2656 25.9028 12.3589 27.001L12.4238 27.7717L12.4708 28.3371ZM29.5568 16.3119C29.2927 17.5327 29.0862 18.7661 28.8584 19.9939L28.9672 20.0093V20.7077C28.977 21.3363 29.2886 21.712 29.9199 21.786C30.5695 21.8629 31.0723 21.5793 31.177 20.9619C31.4201 19.525 31.6245 18.0816 31.7903 16.6318C31.8266 16.339 31.7472 16.0435 31.5685 15.8086C31.3901 15.5737 31.1268 15.4179 30.8349 15.3746C30.2915 15.2782 29.6965 15.6735 29.5568 16.3119ZM42.7641 7.69852L42.6727 7.85184C42.6095 7.95831 42.5497 8.05885 42.4886 8.15297C42.413 8.2698 42.3353 8.37675 42.2458 8.47291C41.6751 9.08587 41.0899 9.68484 40.5049 10.2837L40.4935 10.2957L40.1661 10.6311L39.7817 11.0263C39.2969 11.5278 38.6544 11.6158 38.1571 11.247C37.6221 10.8475 37.4712 10.1547 37.9631 9.59733C38.894 8.53611 39.8843 7.52873 40.93 6.58021C41.1673 6.36509 41.7888 6.38463 42.1312 6.5327C42.3658 6.63423 42.517 6.87434 42.6757 7.12646L42.679 7.13106C42.7508 7.24517 42.8239 7.36156 42.9076 7.46857C42.8563 7.54765 42.8089 7.62435 42.7641 7.69852ZM39.9293 33.6539L39.926 33.6523C39.8128 33.5914 39.6914 33.5261 39.5624 33.4495C39.4431 33.5417 39.31 33.623 39.182 33.7012C38.9218 33.8602 38.6825 34.0063 38.6236 34.2038C38.5063 34.6061 38.5398 35.2249 38.7856 35.5308C39.3877 36.2837 40.1211 36.943 40.8531 37.5785C41.5081 38.1512 42.1814 38.1066 42.6255 37.5478C43.0181 37.0645 42.9104 36.3312 42.3699 35.8074C42.1866 35.6302 42.0043 35.4516 41.8221 35.2729C41.3924 34.8515 40.9627 34.43 40.5164 34.0278C40.3552 33.8825 40.1585 33.7769 39.9293 33.6539ZM28.9828 24.8814C28.9686 23.7234 29.2801 23.2736 29.9311 23.1829C30.6393 23.0837 31.1099 23.4329 31.275 24.2528C31.4286 25.022 31.5486 25.7972 31.6354 26.5785C31.7219 27.3621 31.332 27.9293 30.6909 28.055C30.0959 28.1709 29.5008 27.7211 29.3361 26.9529C29.2616 26.6063 29.1988 26.2573 29.1454 25.9342C29.0993 25.6549 29.0602 25.395 29.027 25.1726L29.0229 25.1469L29.0221 25.1408L28.9828 24.8814ZM9.89236 17.9969C9.86754 18.2336 9.84244 18.4702 9.81406 18.706L9.84626 18.7088V18.9183C9.85744 19.6964 10.2443 20.188 10.8881 20.2453C11.4903 20.2998 12.0113 19.9087 12.1243 19.1907C12.252 18.3448 12.3308 17.4923 12.3605 16.6373C12.3897 15.9417 11.9303 15.4277 11.3296 15.3648C10.7834 15.3089 10.226 15.7168 10.106 16.3691C10.0075 16.9059 9.94993 17.4515 9.89236 17.9969ZM40.0218 23.9902C40.5303 23.9679 40.9101 24.2151 41.0721 24.7543L41.1709 25.0784L41.175 25.0909C41.3368 25.6212 41.4985 26.1521 41.6197 26.6917C41.7594 27.2979 41.4522 27.7086 40.9005 27.9488C40.311 28.2114 39.7689 28.0424 39.537 27.506C39.2107 26.7427 38.9802 25.9418 38.8511 25.1216C38.748 24.4721 39.3037 23.9986 40.0218 23.9902ZM232.14 10.3251H228.148L228.182 10.7204L228.197 10.8992L228.208 11.0333L229.699 11.1003V15.3606H230.651V11.0556H232.187C232.169 10.7665 232.155 10.5541 232.14 10.3251ZM44.5882 20.3599C45.4849 20.3599 46.0003 21.198 45.8145 22.3518C45.6901 23.1186 45.2558 23.5237 44.5797 23.4943C43.8813 23.4622 43.5308 23.0641 43.4945 22.254C43.4846 22.0967 43.48 21.9391 43.4806 21.7815C43.4808 21.6391 43.4855 21.4967 43.4945 21.3544C43.546 20.7021 43.9315 20.3641 44.5882 20.3599ZM52.8363 21.8684C52.779 22.8951 53.1492 23.4412 53.9327 23.4874C54.0953 23.4988 54.2582 23.477 54.4121 23.4233C54.5657 23.3696 54.707 23.2851 54.8268 23.175C54.9468 23.065 55.0431 22.9316 55.1099 22.7831C55.1768 22.6346 55.2125 22.474 55.215 22.3112C55.2515 21.4676 54.7095 20.723 54.011 20.6756C53.3615 20.6323 52.8769 21.1239 52.8363 21.8684Z" fill="#6E80A3"/>
</svg>
