<svg width="148" height="41" viewBox="0 0 148 41" fill="none" xmlns="http://www.w3.org/2000/svg">
<path d="M145.67 11.1401C145.998 11.1425 146.32 11.2269 146.607 11.3859C146.907 11.5469 147.155 11.7916 147.319 12.0903C147.485 12.3817 147.572 12.7111 147.573 13.0464C147.573 13.3786 147.486 13.7049 147.322 13.9936C147.159 14.2914 146.915 14.5364 146.617 14.6995C146.328 14.8635 146.002 14.9497 145.669 14.9497C145.337 14.9497 145.011 14.8635 144.721 14.6995C144.424 14.5361 144.179 14.2912 144.016 13.9936C143.849 13.704 143.762 13.3759 143.762 13.042C143.762 12.708 143.849 12.3799 144.016 12.0903C144.18 11.7912 144.428 11.5464 144.729 11.3859C145.017 11.2259 145.341 11.1413 145.67 11.1401ZM145.67 11.4559C145.398 11.4581 145.131 11.5288 144.893 11.6614C144.642 11.7959 144.435 12.0002 144.297 12.2497C144.158 12.4908 144.085 12.7643 144.085 13.0427C144.085 13.3211 144.158 13.5946 144.297 13.8358C144.435 14.0848 144.642 14.2889 144.893 14.424C145.133 14.5626 145.405 14.6355 145.683 14.6355C145.96 14.6355 146.233 14.5626 146.473 14.424C146.724 14.2898 146.931 14.0854 147.069 13.8358C147.206 13.5952 147.278 13.3233 147.279 13.0464C147.277 12.7669 147.204 12.4925 147.066 12.2497C146.928 12.0002 146.721 11.7959 146.47 11.6614C146.225 11.5257 145.95 11.455 145.67 11.4559ZM144.835 14.1038V12.0486H145.538C145.714 12.0404 145.89 12.06 146.06 12.1067C146.166 12.1418 146.257 12.2116 146.318 12.3048C146.38 12.3918 146.414 12.4958 146.415 12.6026C146.416 12.6753 146.402 12.7475 146.374 12.8148C146.346 12.882 146.306 12.9431 146.254 12.9943C146.141 13.1087 145.989 13.1758 145.828 13.182C145.893 13.2063 145.952 13.2432 146.002 13.2907C146.116 13.4146 146.216 13.551 146.3 13.6972L146.55 14.0979H146.145L145.964 13.7747C145.878 13.5963 145.761 13.4348 145.618 13.2981C145.54 13.2455 145.447 13.2203 145.353 13.2266H145.159V14.1038H144.835ZM145.165 12.9496H145.566C145.703 12.9632 145.84 12.9335 145.959 12.8647C145.993 12.8374 146.02 12.8026 146.038 12.763C146.056 12.7235 146.065 12.6803 146.063 12.6369C146.064 12.5787 146.047 12.5218 146.013 12.4745C145.978 12.4255 145.929 12.3881 145.873 12.3673C145.765 12.3373 145.653 12.3253 145.541 12.3316H145.165V12.9496Z" fill="#6E80A3"/>
<path d="M24.0782 12.2009C27.2367 12.2009 29.7971 9.6405 29.7971 6.48206C29.7971 3.32361 27.2367 0.763184 24.0782 0.763184C20.9198 0.763184 18.3594 3.32361 18.3594 6.48206C18.3594 9.6405 20.9198 12.2009 24.0782 12.2009Z" fill="#6E80A3"/>
<path d="M32.1759 37.3611C35.3344 37.3611 37.8948 34.8007 37.8948 31.6422C37.8948 28.4838 35.3344 25.9233 32.1759 25.9233C29.0175 25.9233 26.457 28.4838 26.457 31.6422C26.457 34.8007 29.0175 37.3611 32.1759 37.3611Z" fill="#6E80A3"/>
<path d="M6.44544 32.0251C9.60388 32.0251 12.1643 29.4647 12.1643 26.3063C12.1643 23.1478 9.60388 20.5874 6.44544 20.5874C3.28699 20.5874 0.726562 23.1478 0.726562 26.3063C0.726562 29.4647 3.28699 32.0251 6.44544 32.0251Z" fill="#6E80A3"/>
<path d="M7.20555 18.4902C9.25854 18.4902 10.9228 16.8259 10.9228 14.7729C10.9228 12.7199 9.25854 11.0557 7.20555 11.0557C5.15256 11.0557 3.48828 12.7199 3.48828 14.7729C3.48828 16.8259 5.15256 18.4902 7.20555 18.4902Z" fill="#6E80A3"/>
<path d="M33.7993 16.9668C35.8523 16.9668 37.5166 15.3025 37.5166 13.2495C37.5166 11.1965 35.8523 9.53223 33.7993 9.53223C31.7463 9.53223 30.082 11.1965 30.082 13.2495C30.082 15.3025 31.7463 16.9668 33.7993 16.9668Z" fill="#6E80A3"/>
<path d="M21.6001 40.2202C23.6531 40.2202 25.3173 38.5559 25.3173 36.5029C25.3173 34.4499 23.6531 32.7856 21.6001 32.7856C19.5471 32.7856 17.8828 34.4499 17.8828 36.5029C17.8828 38.5559 19.5471 40.2202 21.6001 40.2202Z" fill="#6E80A3"/>
<path d="M12.8313 36.98C14.2526 36.98 15.4048 35.8278 15.4048 34.4065C15.4048 32.9852 14.2526 31.833 12.8313 31.833C11.41 31.833 10.2578 32.9852 10.2578 34.4065C10.2578 35.8278 11.41 36.98 12.8313 36.98Z" fill="#6E80A3"/>
<path d="M36.2727 24.2095C37.694 24.2095 38.8462 23.0573 38.8462 21.636C38.8462 20.2147 37.694 19.0625 36.2727 19.0625C34.8514 19.0625 33.6992 20.2147 33.6992 21.636C33.6992 23.0573 34.8514 24.2095 36.2727 24.2095Z" fill="#6E80A3"/>
<path d="M13.4055 10.8667C14.8268 10.8667 15.979 9.71452 15.979 8.29322C15.979 6.87192 14.8268 5.71973 13.4055 5.71973C11.9842 5.71973 10.832 6.87192 10.832 8.29322C10.832 9.71452 11.9842 10.8667 13.4055 10.8667Z" fill="#6E80A3"/>
<path d="M56.6445 40.7634V11.8533H59.7348V15.5065C60.4675 14.1046 61.4356 13.0283 62.6389 12.2777C63.8445 11.5266 65.2397 11.1359 66.66 11.1518C69.3973 11.1518 71.596 12.108 73.2561 14.0202C74.9161 15.9325 75.7457 18.4677 75.7447 21.626C75.7447 24.8409 74.9325 27.394 73.3082 29.2854C71.6839 31.1768 69.5105 32.1235 66.7881 32.1255C65.2243 32.1255 63.8621 31.7606 62.7015 31.0309C61.5408 30.3011 60.5936 29.2139 59.8599 27.7693V40.7634H56.6445ZM59.772 21.6201C59.772 23.8043 60.3598 25.5538 61.5354 26.8683C62.7109 28.1829 64.2682 28.8431 66.2073 28.8491C68.0997 28.8491 69.5889 28.2469 70.6751 27.0426C71.7613 25.8382 72.3039 24.1667 72.3029 22.0281C72.3029 19.6343 71.7603 17.7578 70.6751 16.3986C69.5899 15.0394 68.0793 14.3593 66.1432 14.3583C64.1654 14.3583 62.6096 15.0036 61.4758 16.2944C60.3419 17.5851 59.7755 19.3623 59.7765 21.626L59.772 21.6201Z" fill="#6E80A3"/>
<path d="M96.6898 11.8536V31.2933H93.537V27.7667C92.7765 29.1825 91.8049 30.2627 90.6225 31.0074C89.4346 31.753 88.0574 32.1413 86.655 32.1258C83.9306 32.1258 81.7354 31.1662 80.0693 29.247C78.4033 27.3278 77.5703 24.7876 77.5703 21.6263C77.5703 18.4253 78.3795 15.8791 79.9979 13.9878C81.6162 12.0964 83.7802 11.1531 86.4897 11.1581C88.0782 11.1581 89.4573 11.523 90.6269 12.2527C91.7965 12.9825 92.7397 14.0692 93.4566 15.5128V11.8536H96.6898ZM93.537 21.7544C93.537 19.5592 92.9527 17.7919 91.7841 16.4525C90.6155 15.1132 89.091 14.444 87.2105 14.445C85.2615 14.445 83.7404 15.061 82.6473 16.2932C81.5542 17.5253 81.0081 19.2464 81.0091 21.4565C81.0091 23.8076 81.5586 25.6206 82.6577 26.8954C83.7568 28.1703 85.3161 28.8077 87.3356 28.8077C89.2717 28.8077 90.7893 28.1881 91.8884 26.949C92.9874 25.71 93.537 23.9784 93.537 21.7544Z" fill="#6E80A3"/>
<path d="M118.947 11.8532V30.9533C118.947 33.0631 118.809 34.5648 118.533 35.4584C118.256 36.3482 117.789 37.167 117.164 37.8577C116.274 38.8388 115.16 39.59 113.917 40.0469C112.639 40.5245 111.17 40.7633 109.511 40.7633C106.631 40.7633 104.387 40.0906 102.779 38.7453C101.171 37.4 100.331 35.4947 100.259 33.0294H103.909V33.2841C103.909 34.7436 104.4 35.8699 105.382 36.6632C106.364 37.4565 107.754 37.8537 109.552 37.8547C110.852 37.8547 111.962 37.6387 112.882 37.2068C113.769 36.804 114.506 36.131 114.987 35.2842C115.289 34.7681 115.5 34.2031 115.608 33.6147C115.733 32.9773 115.795 32.0638 115.794 30.8744V27.5979C115.061 28.9879 114.101 30.0538 112.912 30.7954C111.712 31.5419 110.322 31.9289 108.909 31.9109C106.183 31.9109 103.988 30.9618 102.323 29.0634C100.658 27.1651 99.8252 24.6437 99.8242 21.4993C99.8242 18.3221 100.633 15.8047 102.25 13.9471C103.868 12.0895 106.032 11.1582 108.742 11.1532C110.319 11.1532 111.702 11.5181 112.891 12.2478C114.081 12.9776 115.021 14.0504 115.712 15.4662V11.8532H118.947ZM115.794 21.6259C115.794 19.4416 115.214 17.6852 114.053 16.3568C112.892 15.0283 111.364 14.3626 109.469 14.3596C107.519 14.3596 105.998 14.9757 104.906 16.2078C103.814 17.44 103.267 19.1611 103.267 21.3712C103.267 23.7233 103.817 25.5363 104.916 26.8101C106.015 28.0839 107.575 28.7214 109.595 28.7224C111.532 28.7224 113.049 28.0959 114.148 26.8429C115.247 25.5899 115.796 23.8509 115.794 21.6259Z" fill="#6E80A3"/>
<path d="M141.283 11.8536V31.2933H138.13V27.7667C137.37 29.1835 136.398 30.2637 135.212 31.0074C134.024 31.753 132.647 32.1413 131.245 32.1258C128.519 32.1258 126.324 31.1662 124.659 29.247C122.994 27.3278 122.161 24.7876 122.16 21.6263C122.16 18.4253 122.969 15.8791 124.586 13.9878C126.204 12.0964 128.368 11.1531 131.078 11.1581C132.667 11.1581 134.046 11.523 135.217 12.2527C136.387 12.9825 137.331 14.0692 138.046 15.5128V11.8536H141.283ZM138.13 21.7544C138.13 19.5592 137.546 17.7919 136.378 16.4525C135.211 15.1132 133.686 14.444 131.805 14.445C129.855 14.445 128.334 15.061 127.242 16.2932C126.149 17.5253 125.603 19.2464 125.603 21.4565C125.603 23.8076 126.153 25.6206 127.252 26.8954C128.351 28.1703 129.912 28.8077 131.936 28.8077C133.872 28.8077 135.39 28.1881 136.489 26.949C137.588 25.71 138.135 23.9784 138.13 21.7544Z" fill="#6E80A3"/>
</svg>
