<svg width="107" height="37" viewBox="0 0 107 37" fill="none" xmlns="http://www.w3.org/2000/svg">
<path d="M106.884 36.6639H0.789062V31.3648C1.15239 31.3412 1.5248 31.2994 1.90266 31.2994C36.5265 31.2994 71.1509 31.2921 105.776 31.2776C106.637 31.2776 106.946 31.4956 106.902 32.3857C106.833 33.79 106.884 35.2052 106.884 36.6639Z" fill="#6E80A3"/>
<path d="M30.4491 14.2485C30.5581 12.9442 30.6307 11.7434 29.4626 11.0367C28.1801 10.2665 26.7758 10.2755 25.466 10.9568C24.9919 11.2075 24.7303 11.8651 24.3579 12.3138C24.1907 12.5209 23.9946 12.8588 23.8129 12.8679C22.187 12.9115 20.5593 12.8933 18.9443 12.8933C18.6918 10.7515 19.9871 8.3826 22.1598 7.3889C25.6604 5.78845 29.2573 5.7067 32.7616 7.3889C34.9943 8.44618 35.9026 10.4554 36.077 12.8352C36.097 13.1059 36.1006 13.3802 36.1006 13.6508C36.1006 17.5839 36.1006 21.5151 36.1006 25.5298H31.2357C31.1121 25.0284 30.9759 24.4871 30.8196 23.8531C28.9848 25.1937 27.0265 25.9694 24.8502 25.9585C23.7672 25.9628 22.6898 25.803 21.6547 25.4844C19.3839 24.745 18.076 22.7594 18.0215 20.2634C17.967 17.8745 19.0678 15.987 21.3641 15.1768C22.8755 14.6464 24.5268 14.4393 26.1327 14.2685C27.5261 14.1341 28.9558 14.2485 30.4491 14.2485ZM30.3982 18.147C28.6506 18.147 26.9012 18.0435 25.1717 18.1833C23.9709 18.2796 23.4241 19.0917 23.5368 20.0745C23.6403 20.9246 24.4251 21.4805 25.555 21.5169C26.8926 21.5453 28.2108 21.1945 29.3573 20.505C30.6162 19.7892 30.6798 19.6367 30.3982 18.147Z" fill="#6E80A3"/>
<path d="M69.9439 19.07H74.9723C75.9333 21.4443 78.4112 22.4852 80.7965 21.4497C81.2179 21.2681 81.7157 20.7031 81.732 20.298C81.7484 19.8929 81.2815 19.2952 80.8746 19.1063C80.0353 18.7175 79.0979 18.5359 78.195 18.2852C76.769 17.8891 75.3139 17.5803 73.915 17.1025C72.0875 16.4776 70.7614 15.3077 70.4834 13.2658C70.171 10.9605 70.8685 8.99672 72.8814 7.79411C74.447 6.90437 76.1902 6.37225 77.9859 6.23593C79.7815 6.09962 81.5851 6.36249 83.2671 7.00569C85.7377 7.96487 87.0348 9.81784 87.2945 12.5809C85.6069 12.5809 83.9574 12.5973 82.3115 12.5555C82.1299 12.5555 81.9264 12.2267 81.8065 12.0105C80.9363 10.4537 77.8626 9.92502 76.5383 11.1167C75.8116 11.7744 75.9351 12.6845 76.9325 13.0169C78.2459 13.4529 79.6247 13.6855 80.9599 14.0615C82.1286 14.3584 83.2772 14.7292 84.3988 15.1715C88.7333 17.0117 87.914 22.2563 85.4888 24.0857C84.9009 24.5601 84.2443 24.9424 83.5414 25.2193C80.1788 26.4019 76.8071 26.331 73.5299 24.9322C71.1265 23.9167 69.8349 21.6986 69.9439 19.07Z" fill="#6E80A3"/>
<path d="M62.3855 20.9611H66.8072V25.5517H52.1797V20.9738H56.7213V5.16907H53.0644V0.663818H62.3855V20.9611Z" fill="#6E80A3"/>
<path d="M92.168 6.62427C93.5849 6.62427 94.9165 6.64789 96.2445 6.61155C96.7731 6.59702 97.0111 6.75688 97.0729 7.29279C97.1292 7.79237 97.28 8.27922 97.4362 8.98589C100.136 6.13741 103.507 6.60792 106.857 6.65879V11.7817C105.393 11.7817 103.922 11.7363 102.456 11.7944C101.022 11.8507 99.6307 12.1178 98.459 13.0661C98.2055 13.254 98.0021 13.5015 97.8669 13.7866C97.7316 14.0718 97.6685 14.3858 97.6833 14.701C97.7178 17.971 97.6996 21.2409 97.6996 24.5109V25.5518H92.168V6.62427Z" fill="#6E80A3"/>
<path d="M15.4622 11.7872C13.9199 11.7872 12.4393 11.7473 10.9642 11.8C9.62172 11.8472 8.31919 12.1124 7.20196 12.9463C6.58975 13.4022 6.25913 13.9327 6.27366 14.7629C6.32453 18.0328 6.29364 21.3028 6.29183 24.5727V25.5519H0.765625V6.62619C2.21893 6.62619 3.65589 6.60802 5.09648 6.64799C5.26724 6.64799 5.51794 6.93502 5.57971 7.13485C5.74502 7.67984 5.8304 8.24481 5.97755 8.95148C7.33639 7.76522 8.73883 6.84237 10.4465 6.73155C12.0942 6.62437 13.7527 6.70794 15.4622 6.70794V11.7872Z" fill="#6E80A3"/>
<path d="M41.543 6.67151H47.0183V25.5518H41.543V6.67151Z" fill="#6E80A3"/>
</svg>
