<svg width="119" height="38" viewBox="0 0 119 38" fill="none" xmlns="http://www.w3.org/2000/svg">
<path d="M118.65 29.3377H110.297V37.6906H118.65V29.3377Z" fill="#6E80A3"/>
<path d="M13.6195 37.7632C6.21086 37.7632 1.27174 33.6231 0.835938 28.3208H9.18886C9.40676 30.2819 11.15 31.5167 13.4743 31.5167C15.6533 31.5167 16.8154 30.4998 16.8154 29.2651C16.8154 24.8344 1.70755 28.0303 1.70755 17.8615C1.70755 13.1403 5.70242 9.29068 12.9658 9.29068C20.084 9.29068 24.0788 13.2856 24.6599 18.7331H16.8154C16.5975 16.8446 15.1449 15.6098 12.7479 15.6098C10.7868 15.6098 9.6973 16.4088 9.6973 17.7162C9.6973 22.1469 24.6599 19.0236 24.8052 29.3377C24.8052 34.1315 20.5198 37.7632 13.6195 37.7632Z" fill="#6E80A3"/>
<path d="M64.9708 0.647217H56.4727V37.4001H64.9708V0.647217Z" fill="#6E80A3"/>
<path d="M99.5486 23.8175C99.4033 26.8681 96.8611 29.2651 93.7379 29.2651C90.542 29.2651 87.9271 26.6502 87.9271 23.4543C87.9271 20.2584 90.542 17.6436 93.7379 17.6436C96.7159 17.6436 99.1854 19.8953 99.476 22.728C99.476 22.9459 99.5486 23.1638 99.5486 23.3817C99.5486 23.5996 99.5486 23.7449 99.5486 23.8175ZM99.5486 0.647217V10.5255C97.8054 9.72648 95.8442 9.29068 93.8105 9.29068C85.966 9.29068 79.5742 15.6825 79.5742 23.527C79.5742 31.3714 85.966 37.7632 93.8105 37.7632C101.582 37.7632 107.829 31.5893 108.047 23.8901C108.047 23.7449 108.047 23.6722 108.047 23.527V0.647217H99.5486Z" fill="#6E80A3"/>
<path d="M77.2443 12.4865H68.7461V37.4H77.2443V12.4865Z" fill="#6E80A3"/>
<path d="M77.099 0.647217H68.7461V9.58121H77.099V0.647217Z" fill="#6E80A3"/>
<path d="M39.9121 29.3377C36.7162 29.3377 34.1013 26.7229 34.1013 23.527C34.1013 20.3311 36.7162 17.7162 39.9121 17.7162C43.108 17.7162 45.7228 20.3311 45.7228 23.527C45.7228 26.7229 43.108 29.3377 39.9121 29.3377ZM39.9121 9.29068C32.0676 9.29068 25.6758 15.6825 25.6758 23.527C25.6758 31.3714 32.0676 37.7632 39.9121 37.7632C47.7565 37.7632 54.1483 31.3714 54.1483 23.527C54.1483 15.6098 47.8292 9.29068 39.9121 9.29068Z" fill="#6E80A3"/>
</svg>
