<svg width="139" height="37" viewBox="0 0 139 37" fill="none" xmlns="http://www.w3.org/2000/svg">
<path d="M55.2603 16.9941C55.2603 16.0372 56.1805 15.3379 57.7269 15.3379C59.4197 15.3379 60.8931 15.8894 62.0709 17.2896L64.6106 14.6385C63.2851 12.798 60.7818 11.73 57.6157 11.73C53.1242 11.73 50.8419 14.3079 50.8419 16.9955C50.8419 23.3276 60.3034 21.7812 60.3034 24.9472C60.3034 26.0518 59.4197 26.7878 57.6889 26.7878C55.5909 26.7878 53.8966 26.0518 52.5345 24.542L50.0312 27.4139C51.5411 29.1813 54.081 30.3957 57.4314 30.3957C62.2171 30.3957 64.757 27.8558 64.757 24.8741C64.7585 18.283 55.2603 20.087 55.2603 16.9941Z" fill="#6E80A3"/>
<path d="M73.9922 12.2454V7.68066H69.5006V12.2454H66.3711V16.222H69.464V23.843C69.464 28.1503 71.7464 30.3961 75.3177 30.3961C77.4904 30.3961 79.1466 29.587 80.14 28.6287L78.1151 25.2783C77.6733 25.7933 76.8627 26.162 76.0537 26.162C74.7281 26.162 74.0288 25.3529 74.0288 23.6953V16.222H82.2146V29.8811H86.7062V12.2454H82.2146H73.9922Z" fill="#6E80A3"/>
<path d="M84.4192 4.58789C82.9839 4.58789 81.8047 5.80223 81.8047 7.23895C81.8047 8.71225 82.9825 9.85344 84.4192 9.85344C85.8925 9.85344 87.0703 8.71225 87.0703 7.23895C87.0703 5.80369 85.891 4.58789 84.4192 4.58789Z" fill="#6E80A3"/>
<path d="M98.7606 26.162C97.4351 26.162 96.7358 25.3529 96.7358 23.6953V16.222H101.485V12.2454H96.6992V7.68066H92.2076V12.2454H89.0781V16.222H92.171V23.843C92.171 28.1503 94.4534 30.3961 98.0247 30.3961C100.197 30.3961 101.853 29.587 102.847 28.6287L100.822 25.2783C100.38 25.7933 99.5692 26.162 98.7606 26.162Z" fill="#6E80A3"/>
<path d="M113.042 15.9626C114.773 15.9626 116.098 16.5156 117.203 17.5822L119.779 14.3796C118.233 12.76 115.839 11.73 112.821 11.73C107.667 11.73 103.617 15.9275 103.617 21.0818C103.617 26.1996 107.667 30.3957 112.894 30.3957C115.692 30.3957 118.233 29.2911 119.632 27.7446L117.349 24.4308C116.245 25.5354 114.809 26.1616 113.005 26.1616C110.133 26.1616 108.109 23.8792 108.109 21.0438C108.109 18.2084 110.097 15.9626 113.042 15.9626Z" fill="#6E80A3"/>
<path d="M131.641 11.73C129.469 11.73 127.776 12.5405 126.671 13.9758V4.55078H122.18V29.8792H126.671V19.866C126.671 17.4725 128.034 15.9641 130.279 15.9641C132.452 15.9641 133.851 17.4739 133.851 19.866V29.8792H138.342V19.2018C138.341 14.6019 135.728 11.73 131.641 11.73Z" fill="#6E80A3"/>
<path fill-rule="evenodd" clip-rule="evenodd" d="M13.9478 36.7193C15.6406 36.7486 17.0876 36.7632 18.5038 36.7632C19.9186 36.7632 21.3231 36.7486 22.795 36.7178L22.9398 36.7135C24.8857 36.6315 26.7218 36.2029 28.3955 35.4362C30.0312 34.6871 31.468 33.6396 32.6647 32.3228C33.784 31.0939 34.6501 29.6761 35.2412 28.1107C35.4036 27.6776 35.5455 27.2358 35.6626 26.7895C38.0034 25.9176 40.1132 24.377 41.6845 22.374C43.5558 19.9907 44.5857 17.0456 44.5857 14.0829C44.5857 12.216 44.1922 10.4135 43.4153 8.7266C42.7174 7.21234 41.7269 5.83121 40.4716 4.6198C38.0488 2.28476 34.7101 0.968012 30.8169 0.811464L30.7438 0.808538L30.6691 0.807075C28.9705 0.777814 27.5236 0.763184 26.1132 0.763184C24.6999 0.763184 23.2968 0.777814 21.822 0.808538C21.822 0.808538 21.7123 0.811464 21.6757 0.812928C19.7299 0.894859 17.8937 1.32353 16.2214 2.09017C14.5857 2.83926 13.149 3.88681 11.9522 5.20356C10.833 6.43399 9.96691 7.85023 9.37581 9.4157C9.2134 9.84877 9.07149 10.2906 8.95444 10.7369C6.61355 11.6088 4.50382 13.1494 2.9325 15.1524C1.06124 17.5357 0.03125 20.4808 0.03125 23.4435C0.03125 25.3104 0.424809 27.1129 1.2017 28.7998C1.89958 30.314 2.89007 31.6966 4.14537 32.9066C6.56819 35.2416 9.90691 36.5584 13.7957 36.7149L13.8732 36.7178L13.9478 36.7193ZM38.6456 6.51594C39.6639 7.49766 40.4641 8.61251 41.0245 9.82832C41.6419 11.167 41.955 12.5993 41.9565 14.0844C41.9565 16.4604 41.1254 18.8276 39.617 20.75C38.1569 22.6111 36.1291 23.9775 33.9082 24.5964L33.3873 24.7413C33.2835 25.5708 33.0816 26.3887 32.7816 27.1816C32.3076 28.434 31.6141 29.5694 30.7202 30.5525C29.7633 31.6045 28.6134 32.4428 27.3025 33.0427C25.9404 33.6659 24.4363 34.0156 22.8328 34.0829C22.8065 34.0844 22.7802 34.0858 22.7538 34.0858H22.7436C21.2878 34.1151 19.9009 34.1297 18.5051 34.1297C17.1064 34.1297 15.6741 34.1151 13.996 34.0858L13.9521 34.0844L13.9082 34.0829C10.669 33.9512 7.92424 32.889 5.97399 31.009C4.9557 30.0273 4.15541 28.9124 3.59505 27.6966C2.97911 26.3579 2.66601 24.9271 2.66601 23.4421C2.66601 21.0661 3.49703 18.6988 5.00398 16.7749C6.46411 14.9139 8.49191 13.5474 10.7129 12.9285L11.2337 12.7837C11.3376 11.9541 11.5395 11.1363 11.8394 10.3433C12.3134 9.09093 13.0069 7.9556 13.9009 6.97242C14.8577 5.92049 16.0077 5.08216 17.3186 4.4823C18.6792 3.85903 20.1818 3.50936 21.7853 3.44206C21.8116 3.44059 21.8394 3.43913 21.8658 3.43913H21.876C23.3317 3.40987 24.7187 3.39524 26.1145 3.39524C27.5132 3.39524 28.9455 3.40987 30.6236 3.43913L30.6675 3.44059L30.7114 3.44206C33.9506 3.57373 36.6953 4.63591 38.6456 6.51594ZM30.113 16.3462C31.7414 17.4947 32.7436 19.9966 32.8723 20.8876C35.7999 20.0712 38.1042 17.268 38.1042 14.0844C38.1042 12.1692 37.2791 10.5467 35.974 9.28845C34.669 8.03168 32.7889 7.38062 30.5563 7.28991C27.5439 7.23724 24.9762 7.22846 21.955 7.28991H21.9506C17.3449 7.48011 15.0055 10.8993 15.0055 14.0844V14.0858C15.0055 16.001 15.778 17.584 16.7889 18.6169C17.8628 19.7552 19.1328 20.4691 21.6083 20.9563C22.2959 21.0909 23.4737 21.3221 24.0662 21.9527C24.3968 22.3038 24.6602 22.8159 24.6602 23.3309C24.6602 23.8034 24.4978 24.3345 24.1145 24.7486C23.7443 25.148 23.0962 25.4318 22.3588 25.445C19.6478 25.4947 16.5124 25.4904 13.7999 25.445C13.0625 25.4318 12.4144 25.148 12.0442 24.7486C11.6609 24.3331 11.4985 23.8034 11.4985 23.3309C11.4985 22.3023 12.3822 21.2168 14.0164 21.2168C14.1774 21.2138 14.3354 21.2138 14.4978 21.2153C14.5168 21.2153 14.5241 21.1919 14.5095 21.1816C12.8811 20.0331 11.8789 17.5313 11.7502 16.6403C8.82402 17.4567 6.51824 20.2599 6.51824 23.4435C6.51824 25.3587 7.34341 26.9827 8.64846 28.2394C9.95347 29.4962 11.8336 30.1473 14.0662 30.238C17.0786 30.2906 19.6463 30.2994 22.6675 30.238H22.6719C27.2776 30.0478 29.617 26.6286 29.617 23.4435V23.4421C29.617 21.5269 28.8445 19.9439 27.8336 18.911C26.7597 17.7727 25.4897 17.0588 23.0143 16.5716C22.3266 16.437 21.1489 16.2058 20.5563 15.5752C20.2257 15.2241 19.9623 14.712 19.9623 14.197C19.9623 13.7244 20.1247 13.1934 20.508 12.7793C20.8782 12.3799 21.5263 12.0961 22.2637 12.0829C24.9748 12.0331 28.1101 12.0375 30.8226 12.0829C31.56 12.0961 32.2081 12.3799 32.5783 12.7793C32.9616 13.1948 33.124 13.7244 33.124 14.197C33.124 15.2255 32.2403 16.3111 30.6061 16.3111C30.4451 16.3141 30.2871 16.3141 30.1247 16.3126C30.1057 16.3126 30.0984 16.336 30.113 16.3462Z" fill="#6E80A3"/>
</svg>
