<svg width="136" height="31" viewBox="0 0 136 31" fill="none" xmlns="http://www.w3.org/2000/svg">
<path d="M19.8621 2.41365C21.1863 2.41365 22.2547 2.0073 22.8783 1.38376H23.2846L24.8645 9.72799L24.2374 9.87512C21.8484 6.274 19.5329 4.06708 17.3995 4.06708C15.9317 4.06708 15.3397 4.72916 15.3397 5.75905V26.0171C15.3397 27.597 16.1875 28.739 17.8409 29.3275V29.986H7.31076V29.3275C9.06228 28.739 9.88549 27.597 9.88549 26.0171V5.75905C9.88549 4.72916 9.26195 4.06708 7.82571 4.06708C5.72388 4.06708 3.38035 6.274 1.02631 9.87512L0.304688 9.72799L1.95812 1.38376H2.36447C3.06508 2.0073 4.01791 2.41365 5.41562 2.41365H19.8621Z" fill="#6E80A3"/>
<path d="M28.0388 26.1642V7.63317C28.0388 5.83261 27.2682 4.69412 25.7969 4.24924V3.54863C28.2615 3.25115 30.5944 2.27216 32.5332 0.72168L33.1603 0.72168V12.5619C33.1603 13.3676 33.1217 14.3135 33.0867 14.7654L33.1603 14.8389C35.0344 12.9648 38.7861 10.5022 41.543 10.5022C43.9951 10.5022 45.4384 12.1941 45.4384 14.7303V26.1642C45.4384 27.6355 46.1005 28.8125 47.2775 29.317V29.9755H38.1381V29.3275C39.5393 28.5183 40.2714 27.6355 40.2714 26.2378V16.6044C40.2714 14.8529 39.6479 13.9562 38.3237 13.9211C37.1082 13.8826 35.199 14.7654 33.1392 16.128V26.2378C33.1392 27.639 33.9835 28.5533 35.2726 29.3275V29.986H25.979V29.3275C26.6 29.0707 27.129 28.6323 27.4965 28.0697C27.8641 27.5071 28.0531 26.8466 28.0388 26.1747" fill="#6E80A3"/>
<path d="M61.7266 26.1643H61.6531C59.8175 28.0454 56.2864 30.4975 53.491 30.4975C50.9933 30.4975 49.6692 28.8091 49.6692 26.2939V17.3401C49.6692 15.501 49.1892 14.289 47.6094 13.774V13.1119C50.0187 12.8222 52.292 11.8389 54.153 10.2815H54.7065V24.3987C54.7065 26.2378 55.3301 27.1556 56.7278 27.2012C57.9398 27.2747 59.5582 26.3534 61.6531 24.9207V17.5643C61.6531 15.6166 61.2117 14.2189 59.5232 13.7775V13.1119C61.966 12.7822 64.2762 11.805 66.214 10.2815H66.8025V24.5844C66.8025 26.6862 67.3525 27.6706 68.9043 28.1505V28.8126C66.6263 29.0513 64.4097 29.698 62.3607 30.7217H61.6601V28.4447C61.6601 27.597 61.7336 26.6407 61.7336 26.1643" fill="#6E80A3"/>
<path d="M72.1444 26.0171V17.186C72.1444 15.1647 71.5559 14.2084 69.9375 13.767V13.1119C72.3855 12.7973 74.7006 11.8184 76.6318 10.2815H77.2939V12.3833C77.3029 13.145 77.2655 13.9066 77.1818 14.6638L77.2939 14.6988C79.1295 12.8247 82.8077 10.4952 85.6381 10.4952C88.1743 10.4952 89.537 12.1836 89.537 14.7233V26.0171C89.537 27.6355 90.2376 28.8196 91.4461 29.324V29.9861H82.3382V29.324C83.7009 28.5183 84.4716 27.6355 84.4716 26.0171V16.6045C84.4716 14.853 83.8831 13.9562 82.4854 13.9211C81.1998 13.8826 79.4342 14.6218 77.3044 15.9809V26.0171C77.3044 27.6355 78.1486 28.5183 79.4342 29.324V29.9861H69.9375V29.324C70.6054 29.0734 71.1777 28.6195 71.5737 28.0261C71.9697 27.4328 72.1693 26.73 72.1444 26.0171Z" fill="#6E80A3"/>
<path d="M100.889 30.5395C96.4404 30.5395 91.918 27.3412 91.918 21.0813C91.918 15.2733 95.964 10.4951 101.443 10.4951C105.853 10.4951 109.198 13.6198 109.198 18.2508V19.2527H96.6611C96.7732 24.6194 99.6036 27.1205 103.131 27.1205C104.183 27.1222 105.219 26.8605 106.144 26.3594C107.069 25.8583 107.854 25.1337 108.428 24.2515L109.016 24.6018C107.913 28.3886 104.462 30.557 100.889 30.557M96.7346 17.5958H103.94C103.94 14.3975 102.655 12.3412 100.56 12.3412C98.7209 12.3412 97.0569 13.9596 96.7346 17.5958Z" fill="#6E80A3"/>
<path d="M117.949 30.4974C115.332 30.4616 112.736 30.0402 110.242 29.2468L112.67 23.642H113.101C113.801 27.0995 116.628 28.6443 119.385 28.6443C121.666 28.6443 123.028 27.5934 123.028 26.1432C123.028 24.4862 121.224 23.607 118.982 22.8713C115.637 21.7293 111.591 20.5173 111.591 16.6219C111.591 13.1189 114.828 10.4811 119.753 10.4811C121.718 10.4818 123.674 10.7541 125.564 11.2903L123.83 16.2751H123.319C123.088 15.1232 122.461 14.0883 121.548 13.3495C120.634 12.6106 119.491 12.2143 118.317 12.2291C116.443 12.2291 115.266 13.1854 115.266 14.471C115.266 16.4573 118.022 17.2279 120.779 18.2228C123.757 19.2527 126.699 20.6749 126.699 24.0694C126.699 27.8526 123.06 30.5009 117.942 30.5009" fill="#6E80A3"/>
<path d="M128.438 26.9735C128.435 26.5149 128.524 26.0605 128.7 25.6369C128.876 25.2133 129.135 24.8292 129.461 24.5071C129.787 24.1849 130.175 23.9313 130.601 23.7611C131.027 23.5909 131.482 23.5075 131.941 23.516C132.39 23.516 132.834 23.6044 133.249 23.7762C133.664 23.948 134.041 24.1999 134.358 24.5173C134.676 24.8348 134.927 25.2117 135.099 25.6265C135.271 26.0413 135.36 26.4859 135.36 26.9349C135.36 27.3839 135.271 27.8285 135.099 28.2433C134.927 28.6581 134.676 29.035 134.358 29.3525C134.041 29.67 133.664 29.9218 133.249 30.0936C132.834 30.2655 132.39 30.3539 131.941 30.3539C131.488 30.3646 131.038 30.2853 130.616 30.1208C130.194 29.9562 129.809 29.7096 129.483 29.3951C129.157 29.0807 128.897 28.7048 128.718 28.2891C128.538 27.8734 128.443 27.4262 128.438 26.9735Z" fill="#6E80A3"/>
</svg>
