<svg width="162" height="31" viewBox="0 0 162 31" fill="none" xmlns="http://www.w3.org/2000/svg">
<path d="M142.063 8.65771C143.253 8.65771 144.443 8.65771 145.633 8.65771C146.364 8.65771 146.586 8.90016 146.584 9.61579C146.583 10.3314 146.365 10.5622 145.62 10.5651C143.895 10.5651 142.171 10.5812 140.446 10.5651C139.9 10.5651 139.644 10.7112 139.672 11.307C139.711 12.1527 139.711 13.0012 139.672 13.8454C139.643 14.4661 139.9 14.6384 140.487 14.6253C141.846 14.5931 143.208 14.6121 144.569 14.6165C145.404 14.6165 145.562 14.7771 145.562 15.5804C145.562 16.3472 145.384 16.521 144.54 16.5253C143.178 16.5253 141.817 16.5487 140.45 16.5166C139.843 16.502 139.632 16.7167 139.66 17.3184C139.702 18.2356 139.694 19.1571 139.66 20.0743C139.641 20.6162 139.859 20.8046 140.39 20.8046C142.09 20.7885 143.792 20.7943 145.492 20.8046C146.38 20.8046 146.621 21.0835 146.555 21.9452C146.52 22.4067 146.295 22.6754 145.825 22.6754C143.321 22.6823 140.819 22.6823 138.318 22.6754C137.753 22.6754 137.499 22.3673 137.5 21.7992C137.507 17.7361 137.507 13.674 137.5 9.61287C137.5 8.93521 137.815 8.65918 138.48 8.6694C139.682 8.6694 140.878 8.65771 142.063 8.65771Z" fill="#6E80A3"/>
<path d="M67.1728 13.654C67.1728 12.3221 67.1728 10.9916 67.1728 9.66108C67.1728 8.79355 67.3626 8.62559 68.274 8.63874C69.1137 8.63874 69.2583 8.79501 69.2598 9.69175C69.2598 12.0621 69.251 14.4339 69.2598 16.8043C69.2686 18.5189 70.0411 19.7574 71.3921 20.2803C73.6807 21.1682 76.0408 19.5719 76.0656 17.0979C76.0846 14.6545 76.0656 12.2111 76.0656 9.76769C76.0656 8.86803 76.2979 8.64604 77.1815 8.66211C77.9248 8.67525 78.1468 8.90455 78.1527 9.68445C78.1702 11.7408 78.1527 13.7972 78.2096 15.8506C78.2359 16.873 78.2797 17.8748 77.992 18.8665C77.2311 21.4852 74.6563 23.1019 71.8478 22.7324C69.2466 22.3848 67.1932 20.0656 67.1742 17.4294C67.1611 16.1705 67.1728 14.9115 67.1728 13.654Z" fill="#6E80A3"/>
<path d="M84.2416 15.6577C84.2416 13.6495 84.2416 11.6414 84.2416 9.63174C84.2416 8.83724 84.4286 8.66052 85.2406 8.65906C87.5998 8.65906 89.9585 8.65906 92.3167 8.65906C93.0586 8.65906 93.2996 8.89712 93.3083 9.58793C93.3186 10.3182 93.0732 10.565 92.286 10.5665C90.5845 10.5665 88.8816 10.5825 87.1743 10.5665C86.5989 10.5665 86.3228 10.7315 86.352 11.3551C86.3915 12.2007 86.3769 13.0493 86.352 13.8964C86.3389 14.4251 86.555 14.6266 87.0823 14.6266C88.4916 14.6062 89.9025 14.6149 91.3177 14.6266C92.0655 14.6266 92.2904 14.853 92.2933 15.5613C92.2962 16.2696 92.0479 16.5282 91.3381 16.5325C89.9273 16.5442 88.5165 16.5588 87.1027 16.5325C86.5185 16.5194 86.3272 16.7399 86.3433 17.2964C86.371 18.215 86.3681 19.1366 86.3433 20.0552C86.3287 20.6058 86.5185 20.8307 87.1057 20.8205C88.8071 20.7898 90.5086 20.8044 92.2173 20.8118C93.044 20.8118 93.2645 21.0221 93.2689 21.7552C93.2733 22.4884 93.0513 22.6841 92.2232 22.6841C89.9137 22.6841 87.6037 22.6841 85.2932 22.6841C84.395 22.6841 84.2241 22.5147 84.2227 21.6325C84.2343 19.6346 84.2407 17.643 84.2416 15.6577Z" fill="#6E80A3"/>
<path d="M126.943 19.0415C127.405 16.9209 126.638 15.2092 125.254 13.6378C124.348 12.6052 123.612 11.428 122.781 10.3298C122.392 9.81713 122.343 9.40089 122.927 8.99341C123.597 8.53044 123.949 8.52752 124.409 9.12778C125.489 10.5547 126.564 11.9859 127.612 13.4347C127.92 13.8583 128.078 13.8349 128.376 13.4187C129.388 12.0035 130.435 10.6146 131.474 9.21833C131.966 8.55527 132.35 8.49831 132.982 8.97151C133.599 9.42864 133.625 9.70175 133.111 10.4072C131.883 12.1042 130.654 13.8159 129.407 15.5028C129.205 15.773 129.102 16.1046 129.115 16.4419C129.127 18.1331 129.124 19.8244 129.115 21.5156C129.115 22.4197 128.851 22.7103 128.059 22.7205C127.216 22.7307 126.946 22.4401 126.94 21.5068C126.939 20.6802 126.943 19.8638 126.943 19.0415Z" fill="#6E80A3"/>
<path d="M42.4715 16.5049C42.4715 14.8122 42.4554 13.1195 42.4803 11.4268C42.489 10.7944 42.3065 10.495 41.604 10.533C40.6839 10.5826 39.7594 10.533 38.8364 10.549C38.2069 10.5593 37.9834 10.2569 37.9805 9.65377C37.9776 9.05059 38.1353 8.65771 38.8203 8.65771H48.2945C48.9312 8.65771 49.1269 9.03744 49.1269 9.60119C49.1269 10.1649 48.9385 10.5461 48.2974 10.5447C47.4459 10.5447 46.5959 10.5447 45.7459 10.5447C44.6462 10.5447 44.6462 10.5447 44.6462 11.6094C44.6462 14.9198 44.6462 18.2302 44.6462 21.5407C44.6462 22.4374 44.4329 22.6506 43.6078 22.6579C42.6584 22.6667 42.473 22.4812 42.473 21.5041C42.47 19.8402 42.4696 18.1737 42.4715 16.5049Z" fill="#6E80A3"/>
<path d="M98.2712 15.7147C98.2712 13.7548 98.2712 11.7963 98.2712 9.83776C98.2712 8.78913 99.0336 8.30571 99.9916 8.73363C100.458 8.94102 100.46 9.35142 100.46 9.77642C100.455 13.0869 100.455 16.4002 100.46 19.7165C100.46 20.7929 100.46 20.7929 101.56 20.7929C102.848 20.7929 104.136 20.8148 105.423 20.7841C106.067 20.7695 106.378 20.9959 106.367 21.6604C106.354 22.4447 106.165 22.6681 105.395 22.6696C103.351 22.6754 101.31 22.6754 99.2731 22.6696C98.499 22.6696 98.2785 22.4476 98.2756 21.6662C98.2653 19.6741 98.2712 17.6922 98.2712 15.7147Z" fill="#6E80A3"/>
<path d="M30.2406 14.9128C30.226 13.318 30.2406 11.7231 30.2493 10.1268C30.2493 9.33669 29.9368 8.71306 29.2431 8.32457C24.6824 5.76872 20.1179 3.21774 15.5496 0.671631H14.3812C14.0088 0.764236 13.6481 0.898983 13.3062 1.07326C9.24902 3.41004 5.15528 5.68255 1.08783 8.00034C0.5752 8.29244 0.195474 8.64442 0.0859375 9.23884V9.96908C0.269959 10.5635 0.718327 10.895 1.25433 11.1871C2.09556 11.6501 2.92512 12.1379 3.81456 12.671C2.84917 13.299 1.93053 13.8394 1.01188 14.3608C0.535767 14.628 0.201316 14.9523 0.0859375 15.4824V21.726C0.443756 22.6475 1.1185 23.2317 1.98457 23.7049C5.98191 25.8869 9.95735 28.1083 13.9328 30.3312C14.5973 30.7021 15.2239 30.8204 15.922 30.429C20.2509 27.9949 24.5836 25.5675 28.9203 23.147C30.2347 22.4168 30.2435 21.6617 28.9816 20.8541C27.9374 20.1852 26.9048 19.4944 25.7875 18.7627C26.9559 18.1025 28.0104 17.4993 29.0722 16.921C29.8798 16.4814 30.2479 15.8256 30.2406 14.9128ZM15.9658 2.96167L27.4408 9.53385C26.1863 10.2802 25.0164 10.9797 23.8422 11.672C23.6698 11.7742 23.5165 11.6618 23.369 11.5742C21.0147 10.176 18.6575 8.78122 16.2973 7.38986C16.0242 7.22921 15.9556 7.03204 15.957 6.74141C15.9731 5.53359 15.9658 4.32284 15.9658 2.96167ZM14.647 8.85035C14.8354 8.74373 14.996 8.63858 15.2399 8.78462C17.4307 10.0991 19.6448 11.3989 21.9582 12.7659C20.1501 13.7882 18.3785 14.6368 16.7793 15.7365C15.4648 16.6464 14.4425 16.5252 13.1631 15.6767C11.5201 14.5827 9.73098 13.7065 7.90537 12.6783C10.229 11.3624 12.4387 10.1093 14.647 8.85035ZM2.35553 9.58059L14.0672 2.97628C14.0672 4.33745 14.0569 5.54381 14.0672 6.75017C14.0788 6.87992 14.049 7.01003 13.9821 7.12182C13.9152 7.2336 13.8146 7.3213 13.6947 7.37234C11.209 8.73545 8.72617 10.1034 6.24626 11.4763C6.13999 11.553 6.01223 11.5944 5.88114 11.5944C5.75005 11.5944 5.62229 11.553 5.51602 11.4763C4.52435 10.8483 3.49763 10.2524 2.35553 9.58059ZM1.82391 20.9023V17.3898L4.98148 19.1424L1.82391 20.9023ZM27.5022 22.056L18.063 27.2262C17.1868 27.7037 16.3105 28.174 15.4488 28.6574C15.183 28.8035 14.9624 28.8765 14.6484 28.7027C10.857 26.6006 7.05975 24.5072 3.25665 22.4226C3.16739 22.3611 3.08425 22.2912 3.00837 22.2138C4.15339 21.5697 5.27796 20.9534 6.38501 20.3049C6.72092 20.1078 6.93853 20.3049 7.17805 20.4364C9.48708 21.7172 11.8005 22.9893 14.0891 24.3052C14.7361 24.6776 15.2662 24.6659 15.9088 24.2906C18.3756 22.8491 20.8745 21.4602 23.3456 20.0274C23.7838 19.7762 24.0934 19.7748 24.5038 20.0654C25.4487 20.7358 26.4287 21.3492 27.5022 22.056ZM23.6246 17.9419C20.9129 19.4491 18.1994 20.9534 15.4838 22.4548C15.2005 22.6125 14.9624 22.725 14.6236 22.5336C10.6598 20.2894 6.69025 18.0529 2.71481 15.8242C2.65767 15.7796 2.60396 15.7308 2.55416 15.6781C3.6466 15.0618 4.68793 14.4907 5.7088 13.8876C6.0009 13.7138 6.19515 13.8291 6.43905 13.9635C8.99489 15.3977 11.5639 16.8071 14.1066 18.2646C14.758 18.6385 15.275 18.6312 15.9205 18.2486C18.3128 16.8188 20.7401 15.4415 23.1338 14.0132C23.5253 13.7809 23.8013 13.7926 24.1766 14.0321C25.1566 14.6558 26.1673 15.2327 27.267 15.8884C26.011 16.6011 24.8207 17.2773 23.6246 17.9419ZM28.5815 14.6835L25.6313 12.9309C25.3932 12.7849 25.3961 12.6593 25.6386 12.5205C26.4973 12.0313 27.3517 11.5376 28.2105 11.0484C28.4413 10.9184 28.58 10.9827 28.58 11.2572C28.5829 12.3555 28.5815 13.4509 28.5815 14.6835Z" fill="#6E80A3"/>
<path d="M159.018 17.6542C158.756 17.2058 158.785 17.013 159.295 16.7472C161.103 15.8037 161.956 13.7342 161.436 11.7538C160.96 9.93843 159.245 8.66489 157.255 8.65904C155.722 8.6532 154.191 8.6532 152.66 8.65904C151.755 8.65904 151.521 8.87958 151.52 9.74711C151.52 11.7071 151.52 13.667 151.52 15.627C151.52 17.6352 151.52 19.6434 151.52 21.653C151.52 22.4387 151.75 22.6563 152.513 22.6636C153.332 22.6636 153.576 22.4519 153.582 21.6544C153.59 20.397 153.595 19.138 153.582 17.8805C153.582 17.3913 153.748 17.1693 154.264 17.1956C154.848 17.2248 155.432 17.2204 156.016 17.1956C156.409 17.1795 156.631 17.3256 156.808 17.6805C157.509 19.084 158.245 20.4714 158.962 21.8677C159.389 22.7001 159.739 22.855 160.423 22.4986C161.153 22.1189 161.258 21.7231 160.807 20.8921C160.218 19.804 159.635 18.7189 159.018 17.6542ZM157.011 15.4474C156.067 15.497 155.112 15.4474 154.173 15.462C153.75 15.462 153.623 15.2546 153.626 14.8778C153.626 14.2498 153.626 13.6218 153.626 12.9938C153.626 12.3906 153.626 11.7874 153.626 11.1842C153.626 10.822 153.772 10.657 154.141 10.6614C155.136 10.6745 156.132 10.6336 157.125 10.6789C158.317 10.7329 159.257 11.7816 159.272 12.9967C159.295 13.621 159.07 14.2292 158.647 14.6883C158.223 15.1475 157.635 15.4204 157.011 15.4474Z" fill="#6E80A3"/>
<path d="M60.6546 17.7988C60.3464 17.2774 60.3129 17.0335 60.9336 16.6786C62.7621 15.6314 63.5303 13.6393 62.9782 11.7129C62.4262 9.78654 60.7963 8.65612 58.6333 8.65466C57.1504 8.65466 55.668 8.65466 54.1861 8.65466C53.3098 8.65466 53.0718 8.8898 53.0703 9.77047C53.0703 11.7285 53.0703 13.688 53.0703 15.6489C53.0703 17.6323 53.0703 19.6156 53.0703 21.5989C53.0703 22.3905 53.3463 22.6622 54.1058 22.6593C54.8652 22.6563 55.1442 22.4066 55.153 21.6048C55.1646 20.4203 55.1836 19.2344 55.1442 18.05C55.1238 17.4351 55.2902 17.143 55.9577 17.2102C56.4434 17.2565 56.9324 17.2565 57.4182 17.2102C57.9264 17.1664 58.2127 17.346 58.4405 17.809C59.1167 19.1964 59.8382 20.5635 60.5422 21.9378C60.9248 22.6841 61.3177 22.8345 61.9866 22.4971C62.727 22.1233 62.8322 21.7757 62.4028 20.968C61.8288 19.9062 61.2695 18.8357 60.6546 17.7988ZM58.6187 15.462C58.1805 15.4547 57.7424 15.462 57.3043 15.462C55.2085 15.462 55.2085 15.462 55.2085 13.3662C55.2085 12.6637 55.2201 11.9627 55.2085 11.2616C55.1997 10.86 55.3647 10.6862 55.7664 10.6906C56.7887 10.7008 57.811 10.6599 58.8334 10.7096C60.1098 10.7724 61.1395 11.9539 61.0723 13.1997C61.0405 13.8226 60.7657 14.4083 60.307 14.831C59.8483 15.2537 59.2422 15.4797 58.6187 15.4605V15.462Z" fill="#6E80A3"/>
<path d="M122.168 20.9943C120.304 17.0724 118.434 13.1535 116.559 9.23742C116.413 8.94532 116.291 8.65322 115.91 8.63862C115.529 8.62401 115.366 8.89859 115.227 9.18922L109.475 21.2032C109.224 21.7304 109.232 22.1729 109.849 22.4592C110.566 22.7922 110.997 22.7075 111.31 22.0926C111.64 21.45 111.957 20.7986 112.244 20.1356C112.391 19.7982 112.586 19.6799 112.957 19.6843C114.878 19.7033 116.797 19.7003 118.717 19.6843C119.084 19.6843 119.287 19.8011 119.437 20.1429C119.747 20.8483 120.09 21.542 120.448 22.2255C120.645 22.6009 120.975 22.7966 121.415 22.6417C121.854 22.4869 122.374 22.3686 122.409 21.6705C122.447 21.4558 122.279 21.2265 122.168 20.9943ZM117.867 17.9492C116.535 17.9492 115.203 17.9492 113.873 17.9492C113.571 17.9492 113.309 17.8689 113.492 17.4804C114.247 15.8739 115.009 14.2673 115.829 12.5381C116.662 14.279 117.42 15.8593 118.178 17.4395C118.341 17.771 118.238 17.9478 117.867 17.9492Z" fill="#6E80A3"/>
</svg>
