<svg width="222" height="31" viewBox="0 0 222 31" fill="none" xmlns="http://www.w3.org/2000/svg">
<path d="M145.697 27.2793C142.068 32.0381 135.657 31.0025 132.494 28.3238C127.418 24.0079 127.363 15.3821 132.444 11.0721C136.487 7.63942 141.962 7.99736 145.647 11.9523C145.7 11.8907 145.791 11.835 145.803 11.7675C146.172 9.17094 146.172 9.16801 148.763 9.16801C152.023 9.16801 152.023 9.16801 152.023 12.3777C152.023 17.8965 151.999 23.4153 152.046 28.9311C152.046 29.9228 151.844 30.3834 150.779 30.2338C150.242 30.1971 149.704 30.1971 149.168 30.2338C146.257 30.2074 146.257 30.2074 145.697 27.2793ZM144.978 19.6891C144.978 16.7787 142.924 14.678 140.061 14.6692C137.127 14.6692 134.929 16.8227 134.947 19.695C134.947 22.4911 137.139 24.6358 139.993 24.6593C142.848 24.6827 144.975 22.5674 144.978 19.6891Z" fill="#6E80A3"/>
<path d="M93.6019 27.3236C89.4005 32.6605 81.1063 31.0996 78.096 25.5427C75.8398 21.3765 75.8985 17.1575 78.5038 13.182C80.7747 9.71991 84.1546 8.36149 88.2504 8.85146C90.2572 9.09205 91.2254 9.68764 93.5667 11.8793C93.6011 11.8467 93.6316 11.8103 93.6577 11.7707C94.0684 10.9492 93.4406 9.66123 94.3296 9.23581C95.0865 8.87493 96.1486 9.15366 97.0787 9.15072C99.9569 9.15072 99.9569 9.15072 99.9569 12.0231C99.9569 17.6416 99.9217 23.2601 99.9862 28.8786C99.9862 30.0111 99.6635 30.369 98.5897 30.2165C98.1013 30.1826 97.6111 30.1826 97.1227 30.2165C94.1741 30.2047 94.1741 30.2047 93.6019 27.3236ZM87.9512 14.6666C85.1023 14.6489 82.8901 16.7585 82.8256 19.5574C82.8105 20.2287 82.931 20.8962 83.1801 21.5197C83.4292 22.1433 83.8016 22.7101 84.275 23.1863C84.7484 23.6624 85.3131 24.0381 85.9352 24.2908C86.5573 24.5434 87.2241 24.6679 87.8954 24.6566C89.2182 24.664 90.4898 24.1456 91.4304 23.2155C92.371 22.2853 92.9036 21.0196 92.911 19.6968C92.9184 18.374 92.4 17.1024 91.4698 16.1618C90.5397 15.2212 89.274 14.6886 87.9512 14.6812V14.6666Z" fill="#6E80A3"/>
<path d="M60.2074 11.7883C61.645 10.7262 62.9154 9.84308 64.3942 9.31497C70.133 7.2612 74.8331 10.0631 75.2498 16.0953C75.5432 20.5168 75.3319 24.9764 75.3759 29.4184C75.3759 30.1196 75.0561 30.2193 74.4957 30.2135C72.9818 30.19 71.4679 30.1607 69.954 30.2135C69.1061 30.2487 69.0122 29.8497 69.0181 29.1573C69.0474 26.4727 69.0415 23.7852 69.0181 21.1006C69.0314 20.1724 68.9844 19.2443 68.8772 18.3222C68.5838 16.1657 67.6156 14.9951 66.0108 14.7193C63.9306 14.3614 62 15.2298 61.0025 16.9696C60.444 18.0063 60.1707 19.1727 60.2103 20.3495C60.2103 23.2835 60.1781 26.2174 60.2103 29.1514C60.225 29.9641 60.0314 30.2692 59.1688 30.2281C57.7546 30.1577 56.3346 30.1724 54.9204 30.2281C54.1811 30.2575 53.9112 30.0756 53.9141 29.2687C53.9473 22.8727 53.9473 16.4758 53.9141 10.0778C53.9141 9.23868 54.2398 9.11839 54.9439 9.14773C56.0637 9.24164 57.1894 9.24164 58.3091 9.14773C59.6118 8.97756 60.0695 9.50861 60.0695 10.7086C60.0949 11.0708 60.1409 11.4313 60.2074 11.7883Z" fill="#6E80A3"/>
<path d="M213.958 21.5757C211.954 21.5757 209.95 21.5757 207.946 21.5757C207.553 21.5757 206.998 21.3029 206.773 21.8515C206.602 22.2857 206.884 22.7023 207.11 23.0808C208.395 25.2226 212.321 25.8299 214.404 23.9287C215.536 22.8901 216.569 22.8872 217.831 23.0867C218.262 23.1542 218.711 23.1982 219.139 23.2393C221.252 23.43 221.293 23.5121 220.26 25.4515C218.347 29.0397 214.292 31.026 209.844 30.5331C205.49 30.0578 202.061 27.1414 200.814 22.849C199.485 18.2721 200.993 13.3665 204.54 10.7289C207.929 8.20864 212.995 7.99153 216.54 10.3387C220.31 12.8325 221.436 16.5968 221.381 20.9009C221.381 21.6931 220.879 21.5786 220.398 21.5757H213.958ZM210.845 17.298C211.969 17.298 213.092 17.2745 214.213 17.298C214.976 17.3215 215.214 17.0985 214.826 16.3738C213.978 14.7924 212.52 14.3347 210.892 14.3201C209.263 14.3054 207.788 14.7748 206.916 16.3181C206.594 16.8902 206.573 17.3362 207.477 17.3009C208.597 17.2657 209.721 17.301 210.845 17.298Z" fill="#6E80A3"/>
<path d="M45.9834 27.7052C44.358 28.9315 42.6417 29.976 40.5908 30.4044C35.3567 31.4958 31.4457 28.7702 31.1376 23.4363C30.8824 19.006 31.0438 14.5552 30.9909 10.1132C30.9909 9.3533 31.2315 9.09511 32.009 9.13032C33.4232 9.19487 34.8432 9.189 36.2574 9.13032C37.0848 9.09805 37.3283 9.36797 37.3341 10.2071C37.3576 13.6222 37.1376 17.0432 37.4544 20.4524C37.7156 23.2837 38.719 24.4837 40.8314 24.6714C43.2725 24.8856 45.2323 23.4597 45.8925 20.9659C46.3326 19.2847 46.0714 17.5625 46.1096 15.8608C46.1536 13.9567 46.1477 12.0467 46.1096 10.1484C46.1096 9.41198 46.2944 9.10098 47.0983 9.13325C48.5653 9.19487 50.0323 9.189 51.4992 9.13325C52.3002 9.10392 52.488 9.42665 52.4851 10.1572C52.4655 16.5043 52.4655 22.8514 52.4851 29.1985C52.4851 30.0787 52.1623 30.3046 51.3702 30.2313C50.7834 30.1755 50.1966 30.2313 49.6098 30.2137C48.6827 30.2137 47.6734 30.4073 46.8519 30.1051C45.9247 29.7589 46.6612 28.4592 45.9834 27.7052Z" fill="#6E80A3"/>
<path d="M189.938 23.1691C191.608 18.7975 193.259 14.5256 194.855 10.2303C195.149 9.42351 195.519 9.08904 196.422 9.12718C198.315 9.20933 200.21 9.15359 202.314 9.15359L198.934 17.2219C197.252 21.2239 195.551 25.217 193.911 29.2335C193.6 29.9905 193.207 30.2545 192.397 30.2252C190.636 30.1636 188.876 30.1753 187.116 30.2252C186.432 30.2428 186.074 30.0462 185.798 29.389C183.073 22.8141 180.297 16.2625 177.539 9.70223C177.498 9.52127 177.479 9.33616 177.481 9.15065C179.596 9.15065 181.679 9.17412 183.762 9.15065C184.543 9.15065 184.578 9.73744 184.754 10.201C186.262 14.1149 187.741 18.0376 189.246 21.9368C189.392 22.327 189.398 22.814 189.938 23.1691Z" fill="#6E80A3"/>
<path d="M163.369 22.6177C163.369 24.8182 163.34 27.0187 163.369 29.2133C163.384 29.9673 163.184 30.2519 162.392 30.2196C160.978 30.1639 159.558 30.1433 158.144 30.2196C157.181 30.2783 157.026 29.8969 157.035 29.046C157.076 24.7977 157.014 20.5376 157.079 16.298C157.096 15.2359 156.759 14.9073 155.764 15.0452C155.333 15.1039 154.884 15.0129 154.447 15.0628C153.702 15.1508 153.517 14.8046 153.567 14.1328C153.617 13.4609 153.567 12.7655 153.567 12.079C153.587 11.1577 153.311 10.0252 153.751 9.3739C154.192 8.72256 155.38 9.17145 156.237 9.16559C156.894 9.16559 157.067 8.9074 157.055 8.2854C157.023 6.81843 157.081 5.35145 157.032 3.88448C157.005 3.13632 157.205 2.84586 158.003 2.87814C159.47 2.93975 160.937 2.93682 162.404 2.87814C163.199 2.8488 163.398 3.13632 163.369 3.89035C163.31 5.30451 163.387 6.72454 163.337 8.1387C163.31 8.88686 163.513 9.25947 164.308 9.13331C164.356 9.126 164.406 9.126 164.455 9.13331C165.701 9.22427 167.758 8.63748 168.031 9.37683C168.618 10.923 168.277 12.8125 168.28 14.5641C168.28 15.1508 167.773 15.0306 167.4 15.0335C166.376 15.0335 165.346 15.0834 164.325 15.0335C163.554 14.9865 163.316 15.2389 163.334 16.0164C163.416 18.2227 163.372 20.4202 163.369 22.6177Z" fill="#6E80A3"/>
<path d="M4.0705 22.5205C4.0705 20.4667 4.02062 18.4129 4.09397 16.3592C4.12918 15.3704 3.90326 14.9949 2.83237 15.0066C0.582031 15.0594 0.582031 14.9949 0.582031 12.7064V11.8262C0.582031 9.26488 0.582031 9.22967 3.09643 9.16219C3.86805 9.14165 4.12037 8.92454 4.0881 8.15291C4.03235 6.78862 4.12624 5.41847 4.05289 4.04538C4.00595 3.1652 4.27881 2.76325 5.18833 2.8718C5.57561 2.91288 5.96876 2.8718 6.36191 2.91288C7.65578 3.0185 9.42495 2.32609 10.1174 3.20627C10.7658 4.03365 10.3315 5.72067 10.3433 7.0204C10.3609 9.12405 10.3433 9.12405 12.4117 9.12405C15.2899 9.12405 15.2899 9.12405 15.287 12.0199C15.287 15.0095 15.287 15.0946 12.2298 15.0007C10.7159 14.9509 10.2582 15.3558 10.3051 16.9137C10.4254 20.9127 10.3051 24.9175 10.3697 28.9194C10.3697 29.9375 10.1086 30.2925 9.06994 30.2221C7.75385 30.1453 6.43455 30.1404 5.11792 30.2074C4.2612 30.2426 4.04116 29.914 4.05876 29.0984C4.10277 26.9214 4.07343 24.7297 4.0705 22.5205Z" fill="#6E80A3"/>
<path d="M122.287 11.0549C123.895 9.58791 125.286 8.52582 127.228 8.77814C128.921 8.99819 129.223 9.406 128.962 11.0402C128.886 11.5243 128.821 12.0084 128.745 12.4896C128.622 13.2612 128.722 14.1942 128.314 14.7575C127.859 15.3795 127.026 14.605 126.319 14.6402C124.813 14.7135 123.86 15.491 123.258 16.779C122.56 18.2724 122.416 19.8831 122.402 21.5027C122.381 23.9467 122.317 26.3936 122.428 28.8375C122.481 30.061 122.053 30.3045 120.961 30.2341C119.691 30.1636 118.417 30.1636 117.147 30.2341C116.431 30.2634 116.111 30.1255 116.117 29.2923C116.152 22.8904 116.152 16.4876 116.117 10.0837C116.117 9.25051 116.411 9.11261 117.135 9.15075C118.112 9.21691 119.092 9.21691 120.069 9.15075C121.319 9.02459 122.422 9.0422 122.287 11.0549Z" fill="#6E80A3"/>
<path d="M107.61 11.1691C109.148 9.83419 110.268 8.89533 111.823 8.7545C113.912 8.56086 114.666 9.28848 114.408 11.2865C114.355 11.6738 114.294 12.0581 114.232 12.4425C114.112 13.2141 114.209 14.1383 113.807 14.7163C113.302 15.4439 112.46 14.5755 111.721 14.64C111.086 14.6742 110.473 14.8873 109.954 15.2549C109.435 15.6225 109.03 16.1294 108.787 16.7172C108.186 18.0575 107.894 19.5151 107.93 20.9832C107.915 23.6238 107.854 26.2643 107.945 28.8843C107.986 30.0256 107.616 30.3014 106.545 30.2251C105.23 30.1547 103.912 30.1547 102.596 30.2251C101.863 30.2515 101.575 30.0638 101.578 29.254C101.613 22.8639 101.613 16.4747 101.578 10.0865C101.578 9.2562 101.889 9.10951 102.602 9.14471C103.623 9.19166 104.656 9.16525 105.674 9.14471C106.792 9.13591 108.097 8.84252 107.61 11.1691Z" fill="#6E80A3"/>
<path d="M22.8116 11.0017C23.6126 10.3856 24.1319 9.9572 24.6776 9.57579C25.3201 9.12467 26.0618 8.83484 26.8399 8.73081C28.9612 8.43742 29.8384 9.3352 29.5098 11.3714C29.4394 11.8056 29.3749 12.2515 29.3074 12.674C29.193 13.3929 29.2869 14.2642 28.9054 14.7923C28.4595 15.4114 27.6996 14.6368 27.0336 14.6545C25.5197 14.6985 24.3725 15.4672 23.727 17.0808C23.1402 18.5097 23.0287 20.0148 23.0229 21.5346C23.0229 24.0695 22.9906 26.6074 23.0434 29.1452C23.061 29.9843 22.8087 30.2543 21.9696 30.222C20.5554 30.1662 19.1383 30.1838 17.7242 30.2396C16.9789 30.2689 16.7002 30.0606 16.7031 29.2655C16.7325 22.8754 16.7325 16.4843 16.7031 10.0922C16.7031 9.27946 17.0171 9.10049 17.7388 9.1357C18.7129 9.18264 19.6899 9.1357 20.6728 9.1357C21.8141 9.15037 23.2077 8.77776 22.8116 11.0017Z" fill="#6E80A3"/>
<path d="M175.279 30.1812H171.089C170.976 30.1065 170.843 30.0682 170.708 30.0713C170.572 30.0745 170.441 30.119 170.332 30.1988C169.578 30.2722 169.607 29.7675 169.61 29.2482C169.61 22.8991 169.61 16.5501 169.61 10.201C169.61 9.43819 169.81 9.16533 170.599 9.1976C172.066 9.25335 173.533 9.22107 175 9.1976C175.528 9.1976 176.024 9.18 175.88 9.94283C175.854 9.96043 175.801 9.9839 175.804 9.9927C175.826 10.0526 175.852 10.1114 175.88 10.1687V12.2929C175.815 12.3597 175.779 12.4492 175.779 12.5423C175.779 12.6354 175.815 12.7249 175.88 12.7917C175.88 18.374 175.88 23.9593 175.88 29.5475L175.83 29.5856H175.892C175.892 29.9641 175.733 30.1724 175.34 30.1724V30.1137L175.279 30.1812Z" fill="#6E80A3"/>
<path d="M175.738 3.74338C175.723 4.33943 175.531 4.91751 175.187 5.40486C174.844 5.89222 174.364 6.26706 173.808 6.4822C173.252 6.69734 172.644 6.74318 172.062 6.61393C171.48 6.48468 170.949 6.18613 170.537 5.75585C170.124 5.32557 169.847 4.7828 169.743 4.19586C169.638 3.60892 169.709 3.00404 169.947 2.45736C170.185 1.91069 170.579 1.44664 171.08 1.12365C171.581 0.800652 172.167 0.633139 172.763 0.642194C173.164 0.643067 173.561 0.724833 173.93 0.882597C174.299 1.04036 174.632 1.27088 174.91 1.56038C175.188 1.84988 175.404 2.19242 175.546 2.5675C175.689 2.94258 175.754 3.34252 175.738 3.74338Z" fill="#6E80A3"/>
<path d="M170.332 30.1958C170.441 30.1159 170.572 30.0714 170.708 30.0683C170.843 30.0651 170.976 30.1035 171.089 30.1782L170.332 30.1958Z" fill="#6E80A3"/>
<path d="M175.859 12.8008C175.794 12.734 175.758 12.6445 175.758 12.5514C175.758 12.4583 175.794 12.3688 175.859 12.302C175.924 12.3688 175.96 12.4583 175.96 12.5514C175.96 12.6445 175.924 12.734 175.859 12.8008Z" fill="#6E80A3"/>
<path d="M175.858 10.1773C175.829 10.12 175.804 10.0612 175.781 10.0013C175.781 10.0013 175.831 9.96902 175.858 9.95142C175.886 10.0039 175.909 10.0589 175.928 10.1157C175.934 10.1304 175.884 10.1568 175.858 10.1773Z" fill="#6E80A3"/>
<path d="M175.874 29.6063L175.812 29.5945L175.862 29.5564L175.927 29.5652L175.874 29.6063Z" fill="#6E80A3"/>
<path d="M175.281 30.181L175.314 30.134L175.325 30.1927L175.287 30.2397L175.281 30.181Z" fill="#6E80A3"/>
</svg>
