<svg width="115" height="46" viewBox="0 0 115 46" fill="none" xmlns="http://www.w3.org/2000/svg">
<path d="M40.7016 30.8336H21.5024H20.6842H19.5045H19.0098C18.9146 30.8336 18.8195 30.8528 18.7434 30.872C17.5827 31.0828 16.8216 32.2134 17.0309 33.3824C17.2212 34.398 18.0964 35.1454 19.1239 35.1454C19.162 35.1454 19.2001 35.1454 19.2381 35.1454H20.2466C21.902 35.1454 23.4052 36.7934 24.1283 38.3073L25.5744 41.3351C27.1728 45.1869 31.5682 47.0266 35.3928 45.4169C37.2575 44.6312 38.7227 43.1364 39.4838 41.2584C39.5028 41.2201 39.5219 41.1818 39.5409 41.1435C39.9595 40.3961 42.7376 33.7273 42.7376 33.7273C42.9469 33.1141 42.8708 32.4434 42.5283 31.8876C42.1477 31.2744 41.5008 30.8911 40.7777 30.872L40.7016 30.8336ZM2.43648 15.4264C1.19966 15.4264 0.210211 16.4229 0.210211 17.6685C0.210211 18.9141 1.19966 19.9106 2.43648 19.9106H5.21455C6.43234 19.8723 7.40276 18.8375 7.3647 17.611C7.32665 16.4229 6.37525 15.4647 5.21455 15.4456L2.43648 15.4264ZM46.6954 15.4264H34.7839C34.7078 15.4264 34.6317 15.4647 34.6127 15.5414L32.6147 20.1214C32.5767 20.2172 32.4625 20.2747 32.3674 20.2364C32.3103 20.2172 32.2722 20.1789 32.2532 20.1214L31.8156 19.3165C31.7394 19.1824 31.6824 19.0674 31.6063 18.9333C31.2067 18.2434 30.6929 17.6493 30.084 17.1319C28.8662 16.0971 27.325 15.5031 25.7266 15.4456C25.6315 15.4456 25.5364 15.4456 25.4412 15.4456H11.8363C10.6565 15.4647 9.72416 16.4421 9.74319 17.6302C9.76222 18.6458 10.5043 19.5273 11.4938 19.6998C11.6079 19.7381 11.7221 19.7573 11.8363 19.7573H13.8342C15.6038 19.7573 16.7645 21.3478 17.5256 22.9576L17.6778 23.2642L18.6863 25.353C18.7434 25.5063 18.8576 25.7171 18.9717 25.9279C19.0859 26.1387 19.2001 26.3494 19.3142 26.5411C19.3903 26.6752 19.4855 26.8094 19.5806 26.9243C20.6462 28.3041 22.568 28.5915 24.4137 28.5915H44.9258C46.2387 25.6021 47.6468 22.2677 49.0548 19.0099C49.2832 18.4734 49.4734 18.0134 49.4734 17.611C49.5115 16.4229 48.5791 15.4456 47.3994 15.4072C47.3804 15.4072 47.3614 15.4072 47.3423 15.4072L46.6954 15.4264ZM2.28425 0C1.10452 0.0191632 0.153128 0.977325 0.172156 2.16545C0.191183 3.21942 0.9523 4.1201 1.99883 4.2734C2.01786 4.29256 2.113 4.31173 2.28425 4.33089H6.86998C8.63957 4.33089 10.2189 5.9406 10.98 7.55031L11.1132 7.83776C11.3606 8.43182 11.665 9.14086 11.9695 9.86907L12.0075 9.94572C13.1682 12.6669 14.9759 13.2035 17.9252 13.2035H29.3419L25.6886 4.8483L25.4602 4.31173C24.8323 2.85532 23.7287 1.6672 22.3397 0.919835L22.2445 0.862346L22.1494 0.804856C21.6356 0.536571 21.0838 0.344938 20.513 0.191632C20.1134 0.0958162 19.7138 0.0191632 19.2952 0H2.28425ZM38.0757 0C39.2555 0.0383265 40.1688 1.01565 40.1498 2.20377C40.1498 2.49122 40.0737 2.77867 39.9595 3.04695C39.9595 3.06612 39.9405 3.10444 39.9214 3.14277C39.9024 3.1811 39.3316 4.50336 39.3125 4.52252L35.6211 13.1843H51.5475C53.2029 9.35166 54.7252 5.7873 55.962 2.91281C56.5518 1.53306 55.4292 0 53.964 0H38.0757Z" fill="#6E80A3"/>
<path d="M58.6469 32.1753C58.6469 32.8843 58.1522 33.3443 57.4291 33.3443H56.4587V34.7815H56.0781V31.0447H57.4291C58.1712 31.0447 58.6469 31.5046 58.6469 32.1753ZM58.2473 32.2136C58.2663 31.7729 57.9238 31.3896 57.4672 31.3705C57.4291 31.3705 57.4101 31.3705 57.372 31.3705H56.4397V33.0568H57.372C57.8097 33.0951 58.2093 32.7694 58.2473 32.3095C58.2473 32.2711 58.2473 32.2328 58.2473 32.2136Z" fill="#6E80A3"/>
<path d="M59.0039 33.4592C59.0039 32.616 59.5557 32.0603 60.3739 32.0603C61.1921 32.0603 61.7249 32.616 61.7249 33.4592C61.7249 34.3024 61.1731 34.8581 60.3739 34.8581C59.5747 34.8581 59.0039 34.2832 59.0039 33.4592ZM61.3443 33.4592C61.3443 32.8077 60.9638 32.3861 60.3739 32.3861C59.784 32.3861 59.3845 32.8077 59.3845 33.4592C59.3845 34.1108 59.784 34.5324 60.3739 34.5324C60.9638 34.5324 61.3443 34.1108 61.3443 33.4592Z" fill="#6E80A3"/>
<path d="M66.4637 32.1174L65.4172 34.8003H65.0557L64.2185 32.539L63.4003 34.8003H63.0197L61.9922 32.1174H62.3918L63.229 34.3787L64.0662 32.1174H64.3897L65.2079 34.3787L66.0451 32.1174H66.4637Z" fill="#6E80A3"/>
<path d="M69.2422 33.5931H67.111C67.1491 34.168 67.4726 34.5513 68.0053 34.5513C68.3478 34.5513 68.6713 34.3788 68.8616 34.0914L69.147 34.2447C68.8997 34.6279 68.462 34.8579 68.0053 34.8387C67.2442 34.8387 66.7305 34.283 66.7305 33.4398C66.7305 32.5966 67.2442 32.0409 68.0053 32.0409C68.7665 32.0409 69.2612 32.5775 69.2612 33.4015C69.2422 33.4781 69.2422 33.5356 69.2422 33.5931ZM67.111 33.3248H68.8616C68.8235 32.7308 68.5001 32.3475 67.9863 32.3475C67.4726 32.3475 67.1491 32.7308 67.111 33.3248Z" fill="#6E80A3"/>
<path d="M71.2982 32.0603L71.2601 32.4052C70.6132 32.4052 70.2326 32.731 70.2326 33.2484V34.8006H69.8711V32.1178H70.2326V32.5777C70.4229 32.2328 70.7844 32.0603 71.2982 32.0603Z" fill="#6E80A3"/>
<path d="M73.9062 33.5931H71.7751C71.8131 34.168 72.1366 34.5513 72.6694 34.5513C73.0119 34.5513 73.3354 34.3788 73.5257 34.0914L73.8111 34.2447C73.5637 34.6279 73.1261 34.8579 72.6694 34.8387C71.9083 34.8387 71.3945 34.283 71.3945 33.4398C71.3945 32.5966 71.8893 32.0409 72.6694 32.0409C73.4495 32.0409 73.9252 32.5775 73.9252 33.4015C73.9062 33.459 73.9062 33.5548 73.9062 33.5931ZM71.7751 33.3248H73.5257C73.4876 32.7308 73.1641 32.3475 72.6504 32.3475C72.1366 32.3475 71.8131 32.7308 71.7751 33.3248Z" fill="#6E80A3"/>
<path d="M77.0848 30.8339V34.8007H76.7232V34.2258C76.533 34.6282 76.1144 34.8773 75.6577 34.8581C74.9156 34.8581 74.3828 34.3024 74.3828 33.4784C74.3828 32.6544 74.9156 32.0795 75.6577 32.0795C76.1144 32.0603 76.533 32.3094 76.7232 32.7119V30.853L77.0848 30.8339ZM76.7232 33.4592C76.7232 32.8077 76.3237 32.3861 75.7338 32.3861C75.1439 32.3861 74.7443 32.8077 74.7443 33.4592C74.7443 34.1108 75.1439 34.5324 75.7338 34.5324C76.3237 34.5324 76.7232 34.1108 76.7232 33.4592Z" fill="#6E80A3"/>
<path d="M81.9559 33.459C81.9559 34.3022 81.4231 34.8387 80.681 34.8387C80.2243 34.8771 79.8057 34.6088 79.6154 34.2063V34.7812H79.2539V30.8145H79.6154V32.6733C79.8057 32.2709 80.2243 32.0217 80.681 32.0409C81.4231 32.0601 81.9559 32.6158 81.9559 33.459ZM81.5753 33.459C81.5753 32.8074 81.1757 32.3858 80.5859 32.3858C79.996 32.3858 79.5964 32.8074 79.5964 33.459C79.5964 34.1105 79.996 34.5321 80.5859 34.5321C81.1757 34.5321 81.5753 34.1105 81.5753 33.459Z" fill="#6E80A3"/>
<path d="M82.469 35.9121L82.5071 35.6055C82.5832 35.6438 82.6593 35.663 82.7354 35.6438C82.9637 35.6438 83.0589 35.4905 83.154 35.2606L83.3823 34.7623L82.1836 32.0986H82.5832L83.5726 34.3599L84.524 32.0986H84.9236L83.4965 35.2989C83.3253 35.6822 83.154 35.9504 82.7735 35.9504C82.6783 35.9696 82.5642 35.9504 82.469 35.9121Z" fill="#6E80A3"/>
<path d="M55.5273 37.2917H56.0982L57.4301 40.4154L58.724 37.2917H59.3139L57.6775 41.0861H57.1637L55.5273 37.2917Z" fill="#6E80A3"/>
<path d="M60.3375 37.7325V39.0356H61.8407V39.4955H60.3375V41.0861H59.8047V37.2917H62.05V37.7325H60.3375Z" fill="#6E80A3"/>
<path d="M65.9496 39.1887C65.9496 40.3193 65.2075 41.0858 64.1039 41.0858H62.7148V37.2723H64.1039C65.2075 37.2915 65.9496 38.058 65.9496 39.1887ZM65.3788 39.2078C65.3788 38.3263 64.846 37.7514 64.0658 37.7514H63.2476V40.6642H64.0658C64.865 40.6451 65.3788 40.0702 65.3788 39.2078Z" fill="#6E80A3"/>
<path d="M71.6811 41.0861L71.5098 38.2116L70.2159 41.0861H69.8925L68.5986 38.2116L68.4273 41.0861H67.8945L68.1229 37.2534H68.7127L70.0637 40.2046L71.3957 37.2534H71.9855L72.2139 41.0861H71.6811Z" fill="#6E80A3"/>
<path d="M72.9141 37.445C72.9141 37.2726 73.0663 37.1193 73.2375 37.1193C73.4088 37.1193 73.561 37.2726 73.561 37.445C73.561 37.6175 73.4088 37.7708 73.2375 37.7708C73.0663 37.7708 72.9141 37.6367 72.9141 37.4642V37.445ZM72.9902 38.3457H73.5039V41.1052H72.9902V38.3457Z" fill="#6E80A3"/>
<path d="M74.1172 39.7252C74.1172 38.8629 74.688 38.288 75.5443 38.288C75.8678 38.288 76.1912 38.3838 76.4576 38.5946L76.1532 38.9395C75.9819 38.7862 75.7726 38.7096 75.5443 38.7287C75.0115 38.7287 74.65 39.112 74.65 39.706C74.65 40.3001 75.0115 40.6834 75.5443 40.6834C75.7916 40.6834 76.058 40.5876 76.2293 40.4151L76.5337 40.7792C76.2483 41.0283 75.8868 41.1624 75.5253 41.1433C74.7832 41.1816 74.1552 40.6259 74.1172 39.8977C74.1172 39.821 74.1172 39.7827 74.1172 39.7252Z" fill="#6E80A3"/>
<path d="M78.6033 38.288L78.5652 38.767C77.9563 38.767 77.5757 39.0737 77.5757 39.5527V41.0858H77.043V38.3455H77.5377V38.7479C77.747 38.4604 78.1276 38.288 78.6033 38.288Z" fill="#6E80A3"/>
<path d="M78.7188 39.7252C78.7188 38.9395 79.3467 38.288 80.1268 38.288C80.907 38.288 81.5539 38.9203 81.5539 39.706C81.5539 40.4917 80.926 41.1433 80.1458 41.1433C79.2896 41.1433 78.7188 40.5684 78.7188 39.7252ZM81.0211 39.7252C81.0211 39.1503 80.6596 38.7479 80.1458 38.7479C79.6321 38.7479 79.2515 39.1311 79.2515 39.7252C79.2515 40.3193 79.6131 40.6834 80.1458 40.6834C80.6786 40.6834 81.0211 40.3001 81.0211 39.7252Z" fill="#6E80A3"/>
<path d="M83.1528 37.0236C83.343 37.0236 83.5524 37.0619 83.7236 37.1385L83.6855 37.541C83.5714 37.4835 83.4382 37.4643 83.305 37.4643C83.0767 37.4451 82.8673 37.6176 82.8293 37.8476C82.8293 37.8667 82.8293 37.8859 82.8293 37.9051V38.3267H83.6475V38.7482H82.8293V41.067H82.2965V38.7482H81.8398V38.3267H82.2965V37.8284C82.2775 37.4068 82.601 37.0236 83.0386 37.0044C83.0957 37.0044 83.1147 37.0044 83.1528 37.0236ZM84.0661 37.426C84.0661 37.2535 84.2183 37.1002 84.3896 37.1002C84.5608 37.1002 84.7131 37.2535 84.7131 37.426C84.7131 37.5985 84.5608 37.7518 84.3896 37.7518C84.2183 37.7518 84.0661 37.6176 84.0661 37.4451C84.0661 37.4451 84.0661 37.4451 84.0661 37.426ZM84.1232 38.3267H84.6369V41.0862H84.1232V38.3267Z" fill="#6E80A3"/>
<path d="M87.9867 39.3611V41.0858H87.473V39.4569C87.473 39.0353 87.1305 38.6904 86.7119 38.6904C86.2932 38.6904 85.9507 39.0353 85.9507 39.4569V41.0858H85.418V38.3454H85.9127L85.9317 38.7479C86.141 38.4412 86.5026 38.2688 86.8641 38.2879C87.5301 38.2879 87.9867 38.7095 87.9867 39.3611Z" fill="#6E80A3"/>
<path d="M90.8785 39.3612V41.0859H90.3647L90.3457 40.6068C90.1554 40.9518 89.7939 41.1434 89.4133 41.1434C88.8615 41.1434 88.5 40.8176 88.5 40.3194C88.5 39.8211 88.9567 39.457 89.6417 39.457C89.87 39.457 90.1174 39.4762 90.3457 39.5337V39.4187C90.3457 38.9779 90.0603 38.7097 89.6036 38.7097C89.3372 38.6905 89.0899 38.7863 88.8996 38.9779L88.6712 38.6713C88.9567 38.4222 89.3372 38.2881 89.7368 38.3072C90.4218 38.2881 90.8785 38.7097 90.8785 39.3612ZM90.3647 39.8978C90.1554 39.8594 89.9461 39.8211 89.7178 39.8211C89.3182 39.8211 89.0518 40.0128 89.0518 40.3002C89.0518 40.5877 89.2421 40.7601 89.5656 40.7601C90.0222 40.741 90.3838 40.3577 90.3647 39.8978Z" fill="#6E80A3"/>
<path d="M94.1708 39.3611V41.0858H93.6571V39.4569C93.6761 39.0736 93.3717 38.7479 92.9911 38.7479C92.953 38.7479 92.934 38.7479 92.896 38.7479C92.4393 38.7479 92.1348 39.0353 92.1348 39.4569V41.0858H91.6211V38.3454H92.1158V38.7479C92.3251 38.4412 92.6867 38.2688 93.0672 38.2879C93.7332 38.2879 94.1708 38.7095 94.1708 39.3611Z" fill="#6E80A3"/>
<path d="M94.7383 39.7252C94.7383 38.8629 95.3091 38.288 96.1654 38.288C96.4888 38.288 96.8123 38.3838 97.0787 38.5946L96.7743 38.9395C96.603 38.7862 96.3937 38.7096 96.1654 38.7287C95.6326 38.7287 95.2711 39.112 95.2711 39.706C95.2711 40.3001 95.6326 40.6834 96.1654 40.6834C96.4127 40.7025 96.6791 40.5876 96.8504 40.4151L97.1548 40.7792C96.8694 41.0283 96.5079 41.1624 96.1463 41.1433C95.4043 41.2008 94.7763 40.6259 94.7383 39.8977C94.7383 39.8402 94.7383 39.7827 94.7383 39.7252Z" fill="#6E80A3"/>
<path d="M100.067 39.9168H97.9927C98.0498 40.4151 98.2972 40.7409 98.7729 40.7409C99.0773 40.7409 99.3817 40.5876 99.553 40.3384L99.9526 40.5492C99.6862 40.9325 99.2486 41.1624 98.7729 41.1433C97.9737 41.1433 97.4219 40.5684 97.4219 39.7252C97.4219 38.882 97.9547 38.288 98.7538 38.288C99.553 38.288 100.067 38.8437 100.067 39.6869C100.086 39.7635 100.086 39.8402 100.067 39.9168ZM97.9927 39.5527H99.553C99.5149 39.0353 99.2295 38.7096 98.7729 38.7096C98.3162 38.7096 98.0498 39.0353 97.9927 39.5527Z" fill="#6E80A3"/>
<path d="M104.921 40.0127C104.921 40.6642 104.407 41.0858 103.646 41.0858H102.086V37.2723H103.589C104.274 37.2723 104.731 37.6556 104.731 38.2497C104.731 38.6138 104.502 38.9395 104.16 39.0737C104.598 39.1695 104.921 39.5528 104.921 40.0127ZM102.638 38.9012H103.475C103.894 38.9012 104.179 38.6713 104.179 38.3072C104.179 37.9431 103.894 37.7131 103.475 37.7131H102.638V38.9012ZM104.35 39.9935C104.35 39.6103 104.046 39.3611 103.608 39.3611H102.619V40.6451H103.589C104.065 40.6451 104.35 40.3768 104.35 39.9935Z" fill="#6E80A3"/>
<path d="M107.699 39.3612V41.0859H107.185L107.166 40.6068C106.976 40.9518 106.614 41.1434 106.234 41.1434C105.682 41.1434 105.32 40.8176 105.32 40.3194C105.32 39.8211 105.777 39.457 106.462 39.457C106.69 39.457 106.938 39.4762 107.166 39.5337V39.4187C107.166 38.9779 106.881 38.7097 106.424 38.7097C106.158 38.6905 105.91 38.7863 105.72 38.9779L105.492 38.6713C105.777 38.4222 106.158 38.2881 106.557 38.3072C107.242 38.2881 107.699 38.7097 107.699 39.3612ZM107.166 39.8978C106.957 39.8594 106.747 39.8211 106.519 39.8211C106.119 39.8211 105.853 40.0128 105.853 40.3002C105.853 40.5877 106.043 40.7601 106.367 40.7601C106.843 40.741 107.185 40.3769 107.166 39.8978C107.166 39.9169 107.166 39.9169 107.166 39.8978Z" fill="#6E80A3"/>
<path d="M110.99 39.3611V41.0858H110.457V39.4569C110.476 39.0736 110.172 38.7479 109.791 38.7479C109.753 38.7479 109.734 38.7479 109.696 38.7479C109.24 38.7479 108.935 39.0353 108.935 39.4569V41.0858H108.402V38.3454H108.897V38.7479C109.106 38.4412 109.468 38.2688 109.848 38.2879C110.533 38.2879 110.99 38.7095 110.99 39.3611Z" fill="#6E80A3"/>
<path d="M112.667 39.8596H112.267V41.086H111.734V37.0809H112.267V39.438H112.667L113.637 38.3457H114.303L113.085 39.6488L114.36 41.086H113.694L112.667 39.8596Z" fill="#6E80A3"/>
</svg>
